<?xml version="1.0" encoding="utf-8"?>
<!-- Generator: Adobe Illustrator 19.0.0, SVG Export Plug-In . SVG Version: 6.00 Build 0)  -->
<svg version="1.1" id="Layer_1" xmlns="http://www.w3.org/2000/svg" xmlns:xlink="http://www.w3.org/1999/xlink" x="0px" y="0px"
	 width="612px" height="500px" viewBox="0 0 612 500" style="enable-background:new 0 0 612 500;" xml:space="preserve">
<style type="text/css">
	.st0{fill:#82C885;}
	.st1{fill:#4888C7;}
	.st2{fill:none;stroke:#82C885;stroke-width:2;stroke-miterlimit:10;}
	.st3{fill:none;stroke:#82C885;stroke-miterlimit:10;}
	.st4{fill:#4788C8;}
	.st5{fill:none;stroke:#4788C8;stroke-width:3;stroke-miterlimit:10;}
	.st6{fill:none;stroke:#4788C8;stroke-width:2;stroke-miterlimit:10;}
	.st7{fill:none;stroke:#4788C8;stroke-miterlimit:10;}
</style>
<g id="XMLID_16_">
	<path id="XMLID_20_" class="st0" d="M410.8,155c-8.2,0-14.9,6.7-14.9,14.9s6.7,14.9,14.9,14.9c8.2,0,14.9-6.7,14.9-14.9
		S419,155,410.8,155z M421.2,178c0.1-0.3,0.1-0.5,0-0.8c-1-2.5-2.6-3.1-3.9-3.4c-1.1-0.2-2.5-0.6-3-0.9l-2.6,4.3l-0.4-1.7
		c0.5-0.3,0.8-0.7,0.8-1.3c0-0.1,0-0.1,0-0.2c-0.5,0.1-1,0.2-1.5,0.2c-0.5,0-1-0.1-1.5-0.2c0,0.1,0,0.1,0,0.2c0,0.6,0.3,1,0.8,1.3
		l-0.4,1.7l-2.6-4.3c-0.5,0.3-1.9,0.7-2.9,0.9c-1.3,0.2-2.9,0.8-3.9,3.4c0,0.1,0,0.1,0,0.2c-1.5-2.1-2.4-4.7-2.4-7.5
		c0-7.3,5.9-13.2,13.2-13.2s13.2,5.9,13.2,13.2C424,173,422.9,175.8,421.2,178z"/>
	<path id="XMLID_23_" class="st0" d="M416.3,165.2c0.4-4.1-2.2-6.2-3.7-6.7l0,0l0,0c-0.6-0.2-1.1-0.3-1.7-0.3c-0.1,0-0.2,0-0.3,0
		c-0.1,0-0.2,0-0.3,0c-0.5,0-1.1,0.1-1.7,0.3l0,0l0,0c-1.5,0.5-4.2,2.6-3.7,6.7c0,0,0,0,0,0c-0.5,0.6-0.4,1.4-0.2,2
		c0.3,1.1,0.7,1.7,1.1,2c0.1,0.5,0.4,1.4,1.1,2.2l0,0c0,0,0,0,0,0c0,0,0.1,0.1,0.1,0.1c0,0,0.5,0.5,1.1,1c0.3,0.2,0.7,0.5,1.1,0.6
		c0,0,0,0,0,0c0.1,0.1,0.3,0.1,0.4,0.1c0.2,0.1,0.4,0.1,0.6,0.1c0.1,0,0.2,0,0.3,0c0,0,0.1,0,0.1,0c0.1,0,0.1,0,0.1,0
		c0.9,0,1.8-0.3,2.7-1c0,0,0.9-0.8,1.3-1.3c0.6-0.8,0.9-1.6,1-2.1c0.4-0.3,0.9-0.9,1.1-2C416.7,166.6,416.8,165.8,416.3,165.2
		C416.3,165.2,416.3,165.2,416.3,165.2z M415.5,167c-0.3,1.4-0.9,1.5-1,1.5c0,0,0,0,0,0s-0.1,1.3-1.3,2.7c0,0,0,0,0,0
		c-0.9,0.9-1.9,1.4-2.8,1.4c-1.2,0-2.1-0.9-2.6-1.3c0,0,0,0,0,0c-1.2-1.4-1.3-2.7-1.3-2.7s0,0,0,0c-0.1,0-0.7-0.1-1-1.5
		c-0.2-1.1,0-1.2,0.2-1.2c0.1,0,0.2,0,0.2,0c0,0,0,0,0,0l0,0l0.4,1.4c0,0-0.3-3.8,1.8-4.1c0,0,2.2,2.2,4.9,2.7c0,0-0.6-1.1-1.1-2
		c0,0,1.6,1.8,2.9,2c0,0,0.2-0.3,0.4-0.7c0,0.2-0.1,0.5-0.1,0.7c0,0,0.1,0,0.2,0C415.5,165.8,415.8,165.9,415.5,167z"/>
</g>
<g id="XMLID_115_">
	<path id="XMLID_119_" class="st1" d="M53,293.3c-9.4,0-17.1,7.7-17.1,17.1s7.7,17.1,17.1,17.1c9.4,0,17.1-7.7,17.1-17.1
		S62.4,293.3,53,293.3z M65,319.8c0.1-0.3,0.1-0.6,0-0.9c-1.1-2.9-3-3.6-4.5-3.9c-1.3-0.2-2.8-0.7-3.4-1l-3,5l-0.4-1.9
		c0.5-0.3,0.9-0.9,0.9-1.5c0-0.1,0-0.1,0-0.2c-0.5,0.1-1.1,0.2-1.7,0.2c-0.6,0-1.2-0.1-1.7-0.2c0,0.1,0,0.1,0,0.2
		c0,0.6,0.4,1.2,0.9,1.5l-0.4,1.9l-3-5c-0.6,0.3-2.1,0.8-3.4,1c-1.5,0.3-3.4,1-4.5,3.9c0,0.1,0,0.2-0.1,0.2
		c-1.7-2.5-2.7-5.4-2.7-8.6c0-8.4,6.8-15.2,15.2-15.2s15.2,6.8,15.2,15.2C68.2,313.9,67,317.2,65,319.8z"/>
	<path id="XMLID_116_" class="st1" d="M59.4,305c0.5-4.7-2.5-7.1-4.3-7.7l0,0l0,0c-0.7-0.2-1.3-0.3-1.9-0.3c-0.1,0-0.3,0-0.4,0
		c-0.1,0-0.3,0-0.4,0c-0.6,0-1.2,0.1-1.9,0.3l0,0l0,0c-1.8,0.6-4.8,3-4.3,7.7c0,0,0,0,0,0c-0.5,0.7-0.4,1.6-0.2,2.3
		c0.3,1.3,0.8,1.9,1.3,2.3c0.2,0.6,0.5,1.6,1.2,2.5l0,0c0,0,0,0,0,0c0,0.1,0.1,0.1,0.1,0.2c0,0,0.5,0.6,1.3,1.2
		c0.4,0.3,0.8,0.5,1.2,0.7c0,0,0,0,0,0c0.2,0.1,0.3,0.1,0.5,0.2c0.2,0.1,0.5,0.1,0.7,0.1c0.1,0,0.2,0,0.3,0c0,0,0.1,0,0.1,0
		c0.1,0,0.1,0,0.2,0c1,0,2.1-0.4,3.1-1.1c0,0,1-0.9,1.5-1.5c0.6-0.9,1-1.8,1.1-2.4c0.5-0.3,1-1,1.3-2.3
		C59.8,306.6,60,305.7,59.4,305C59.4,305,59.4,305,59.4,305z M58.5,307.1c-0.4,1.6-1,1.7-1.1,1.7c0,0,0,0,0,0s-0.1,1.5-1.5,3.1
		c0,0,0,0,0,0c-1.1,1.1-2.2,1.6-3.2,1.6c-1.4-0.1-2.4-1-3-1.5c0,0,0,0,0,0c-1.4-1.6-1.5-3.1-1.5-3.1s0,0,0,0c-0.1,0-0.8-0.1-1.1-1.7
		c-0.3-1.2,0-1.4,0.2-1.4c0.1,0,0.2,0,0.2,0c0,0,0,0,0,0l0,0l0.5,1.6c0,0-0.3-4.4,2-4.7c0,0,2.5,2.6,5.6,3.1c0,0-0.7-1.2-1.2-2.3
		c0,0,1.8,2,3.4,2.3c0,0,0.2-0.3,0.5-0.8c0,0.3-0.1,0.5-0.1,0.8c0,0,0.1,0,0.2,0C58.5,305.7,58.8,305.9,58.5,307.1z"/>
</g>
<g id="XMLID_101_">
	<path id="XMLID_105_" class="st1" d="M323.1,105c-5,0-9,4-9,9s4,9,9,9c5,0,9-4,9-9S328,105,323.1,105z M329.4,118.9
		c0-0.2,0-0.3,0-0.5c-0.6-1.5-1.6-1.9-2.4-2c-0.7-0.1-1.5-0.4-1.8-0.5l-1.6,2.6l-0.2-1c0.3-0.2,0.5-0.5,0.5-0.8c0,0,0-0.1,0-0.1
		c-0.3,0.1-0.6,0.1-0.9,0.1c-0.3,0-0.6,0-0.9-0.1c0,0,0,0.1,0,0.1c0,0.3,0.2,0.6,0.5,0.8l-0.2,1l-1.6-2.6c-0.3,0.2-1.1,0.4-1.8,0.5
		c-0.8,0.1-1.8,0.5-2.4,2c0,0,0,0.1,0,0.1c-0.9-1.3-1.4-2.9-1.4-4.5c0-4.4,3.6-8,8-8s8,3.6,8,8C331.1,115.9,330.4,117.6,329.4,118.9
		z"/>
	<path id="XMLID_102_" class="st1" d="M326.4,111.1c0.3-2.5-1.3-3.7-2.3-4.1l0,0l0,0c-0.4-0.1-0.7-0.2-1-0.2c-0.1,0-0.1,0-0.2,0
		c-0.1,0-0.1,0-0.2,0c-0.3,0-0.7,0.1-1,0.2l0,0l0,0c-0.9,0.3-2.5,1.6-2.3,4.1c0,0,0,0,0,0c-0.3,0.4-0.2,0.8-0.1,1.2
		c0.2,0.7,0.4,1,0.7,1.2c0.1,0.3,0.3,0.8,0.7,1.3l0,0c0,0,0,0,0,0c0,0,0,0.1,0.1,0.1c0,0,0.3,0.3,0.7,0.6c0.2,0.1,0.4,0.3,0.7,0.4
		c0,0,0,0,0,0c0.1,0,0.2,0.1,0.3,0.1c0.1,0,0.2,0.1,0.4,0.1c0.1,0,0.1,0,0.2,0c0,0,0,0,0.1,0c0,0,0.1,0,0.1,0c0.6,0,1.1-0.2,1.6-0.6
		c0,0,0.5-0.5,0.8-0.8c0.3-0.5,0.5-0.9,0.6-1.3c0.3-0.2,0.5-0.5,0.7-1.2C326.7,112,326.7,111.5,326.4,111.1
		C326.4,111.1,326.4,111.1,326.4,111.1z M326,112.2c-0.2,0.8-0.5,0.9-0.6,0.9c0,0,0,0,0,0s0,0.8-0.8,1.6c0,0,0,0,0,0
		c-0.6,0.6-1.1,0.8-1.7,0.8c-0.7,0-1.3-0.5-1.6-0.8c0,0,0,0,0,0c-0.7-0.9-0.8-1.7-0.8-1.7s0,0,0,0c-0.1,0-0.4-0.1-0.6-0.9
		c-0.2-0.7,0-0.8,0.1-0.8c0.1,0,0.1,0,0.1,0c0,0,0,0,0,0l0,0l0.3,0.8c0,0-0.2-2.3,1.1-2.5c0,0,1.3,1.4,2.9,1.6c0,0-0.4-0.6-0.6-1.2
		c0,0,0.9,1.1,1.8,1.2c0,0,0.1-0.2,0.3-0.4c0,0.1,0,0.3-0.1,0.4c0,0,0,0,0.1,0C325.9,111.5,326.1,111.6,326,112.2z"/>
</g>
<g id="XMLID_66_">
	<path id="XMLID_70_" class="st0" d="M500.3,278.6c-8.2,0-14.9,6.7-14.9,14.9s6.7,14.9,14.9,14.9c8.2,0,14.9-6.7,14.9-14.9
		S508.5,278.6,500.3,278.6z M510.7,301.6c0.1-0.3,0.1-0.5,0-0.8c-1-2.5-2.6-3.1-3.9-3.4c-1.1-0.2-2.5-0.6-3-0.9l-2.6,4.3l-0.4-1.7
		c0.5-0.3,0.8-0.7,0.8-1.3c0-0.1,0-0.1,0-0.2c-0.5,0.1-1,0.2-1.5,0.2c-0.5,0-1-0.1-1.5-0.2c0,0.1,0,0.1,0,0.2c0,0.6,0.3,1,0.8,1.3
		l-0.4,1.7l-2.6-4.3c-0.5,0.3-1.9,0.7-2.9,0.9c-1.3,0.2-2.9,0.8-3.9,3.4c0,0.1,0,0.1,0,0.2c-1.5-2.1-2.4-4.7-2.4-7.5
		c0-7.3,5.9-13.2,13.2-13.2c7.3,0,13.2,5.9,13.2,13.2C513.6,296.5,512.5,299.3,510.7,301.6z"/>
	<path id="XMLID_67_" class="st0" d="M505.9,288.7c0.4-4.1-2.2-6.2-3.7-6.7l0,0l0,0c-0.6-0.2-1.1-0.3-1.7-0.3c-0.1,0-0.2,0-0.3,0
		c-0.1,0-0.2,0-0.3,0c-0.5,0-1.1,0.1-1.7,0.3l0,0l0,0c-1.5,0.5-4.2,2.6-3.7,6.7c0,0,0,0,0,0c-0.5,0.6-0.4,1.4-0.2,2
		c0.3,1.1,0.7,1.7,1.1,2c0.1,0.5,0.4,1.4,1.1,2.2l0,0c0,0,0,0,0,0c0,0,0.1,0.1,0.1,0.1c0,0,0.5,0.5,1.1,1c0.3,0.2,0.7,0.5,1.1,0.6
		c0,0,0,0,0,0c0.1,0.1,0.3,0.1,0.4,0.1c0.2,0.1,0.4,0.1,0.6,0.1c0.1,0,0.2,0,0.3,0c0,0,0.1,0,0.1,0c0.1,0,0.1,0,0.1,0
		c0.9,0,1.8-0.3,2.7-1c0,0,0.9-0.8,1.3-1.3c0.6-0.8,0.9-1.6,1-2.1c0.4-0.3,0.9-0.9,1.1-2C506.3,290.1,506.4,289.3,505.9,288.7
		C505.9,288.7,505.9,288.7,505.9,288.7z M505.1,290.5c-0.3,1.4-0.9,1.5-1,1.5c0,0,0,0,0,0s-0.1,1.3-1.3,2.7c0,0,0,0,0,0
		c-0.9,0.9-1.9,1.4-2.8,1.4c-1.2,0-2.1-0.9-2.6-1.3c0,0,0,0,0,0c-1.2-1.4-1.3-2.7-1.3-2.7s0,0,0,0c-0.1,0-0.7-0.1-1-1.5
		c-0.2-1.1,0-1.2,0.2-1.2c0.1,0,0.2,0,0.2,0c0,0,0,0,0,0l0,0l0.4,1.4c0,0-0.3-3.8,1.8-4.1c0,0,2.2,2.2,4.9,2.7c0,0-0.6-1.1-1.1-2
		c0,0,1.6,1.8,2.9,2c0,0,0.2-0.3,0.4-0.7c0,0.2-0.1,0.5-0.1,0.7c0,0,0.1,0,0.2,0C505.1,289.3,505.4,289.5,505.1,290.5z"/>
</g>
<g id="XMLID_73_">
	<path id="XMLID_77_" class="st0" d="M395.1,363.4c-7.7,0-14,6.3-14,14s6.3,14,14,14c7.7,0,14-6.3,14-14S402.8,363.4,395.1,363.4z
		 M404.9,385.1c0.1-0.3,0.1-0.5,0-0.8c-0.9-2.4-2.5-3-3.7-3.2c-1-0.2-2.3-0.6-2.8-0.8l-2.4,4.1l-0.4-1.6c0.4-0.2,0.7-0.7,0.7-1.2
		c0-0.1,0-0.1,0-0.2c-0.4,0.1-0.9,0.2-1.4,0.2c-0.5,0-1-0.1-1.4-0.2c0,0.1,0,0.1,0,0.2c0,0.5,0.3,1,0.7,1.2l-0.4,1.6l-2.4-4.1
		c-0.5,0.2-1.7,0.6-2.8,0.8c-1.2,0.2-2.8,0.8-3.7,3.2c0,0.1,0,0.1,0,0.2c-1.4-2-2.2-4.5-2.2-7.1c0-6.9,5.6-12.5,12.5-12.5
		c6.9,0,12.5,5.6,12.5,12.5C407.5,380.4,406.5,383,404.9,385.1z"/>
	<path id="XMLID_74_" class="st0" d="M400.3,373c0.4-3.9-2.1-5.8-3.5-6.3l0,0l0,0c-0.5-0.2-1.1-0.2-1.6-0.2c-0.1,0-0.2,0-0.3,0
		c-0.1,0-0.2,0-0.3,0c-0.5,0-1,0.1-1.6,0.2l0,0l0,0c-1.5,0.5-3.9,2.5-3.5,6.3c0,0,0,0,0,0c-0.4,0.6-0.3,1.3-0.2,1.9
		c0.2,1.1,0.7,1.6,1.1,1.9c0.1,0.5,0.4,1.3,1,2.1l0,0c0,0,0,0,0,0c0,0,0.1,0.1,0.1,0.1c0,0,0.4,0.5,1,1c0.3,0.2,0.6,0.4,1,0.6
		c0,0,0,0,0,0c0.1,0.1,0.3,0.1,0.4,0.1c0.2,0.1,0.4,0.1,0.6,0.1c0.1,0,0.2,0,0.3,0c0,0,0.1,0,0.1,0c0,0,0.1,0,0.1,0
		c0.9,0,1.7-0.3,2.5-0.9c0,0,0.8-0.8,1.2-1.2c0.5-0.8,0.8-1.5,0.9-2c0.4-0.3,0.8-0.8,1.1-1.9C400.7,374.3,400.8,373.6,400.3,373
		C400.3,373,400.3,373,400.3,373z M399.6,374.7c-0.3,1.3-0.8,1.4-0.9,1.4c0,0,0,0,0,0s-0.1,1.2-1.2,2.5c0,0,0,0,0,0
		c-0.9,0.9-1.8,1.3-2.7,1.3c-1.1,0-2-0.8-2.4-1.3c0,0,0,0,0,0c-1.1-1.3-1.2-2.6-1.2-2.6s0,0,0,0c-0.1,0-0.6-0.1-0.9-1.4
		c-0.2-1,0-1.2,0.2-1.2c0.1,0,0.2,0,0.2,0c0,0,0,0,0,0l0,0l0.4,1.3c0,0-0.3-3.6,1.7-3.9c0,0,2,2.1,4.6,2.6c0,0-0.6-1-1-1.9
		c0,0,1.5,1.7,2.8,1.9c0,0,0.2-0.3,0.4-0.7c0,0.2,0,0.4-0.1,0.7c0,0,0.1,0,0.2,0C399.6,373.5,399.8,373.7,399.6,374.7z"/>
</g>
<g id="XMLID_80_">
	<path id="XMLID_84_" class="st1" d="M241.4,434.8c-4.9,0-9,4-9,9c0,4.9,4,9,9,9c4.9,0,9-4,9-9C250.4,438.8,246.3,434.8,241.4,434.8
		z M247.7,448.6c0-0.2,0-0.3,0-0.5c-0.6-1.5-1.6-1.9-2.4-2c-0.7-0.1-1.5-0.4-1.8-0.5l-1.6,2.6l-0.2-1c0.3-0.2,0.5-0.4,0.5-0.8
		c0,0,0-0.1,0-0.1c-0.3,0.1-0.6,0.1-0.9,0.1c-0.3,0-0.6,0-0.9-0.1c0,0,0,0.1,0,0.1c0,0.3,0.2,0.6,0.5,0.8l-0.2,1l-1.6-2.6
		c-0.3,0.2-1.1,0.4-1.8,0.5c-0.8,0.1-1.8,0.5-2.4,2c0,0,0,0.1,0,0.1c-0.9-1.3-1.4-2.9-1.4-4.5c0-4.4,3.6-8,8-8c4.4,0,8,3.6,8,8
		C249.4,445.6,248.7,447.3,247.7,448.6z"/>
	<path id="XMLID_81_" class="st1" d="M244.7,440.9c0.3-2.5-1.3-3.7-2.3-4l0,0l0,0c-0.4-0.1-0.7-0.2-1-0.2c-0.1,0-0.1,0-0.2,0
		c-0.1,0-0.1,0-0.2,0c-0.3,0-0.7,0.1-1,0.2l0,0l0,0c-0.9,0.3-2.5,1.6-2.3,4c0,0,0,0,0,0c-0.3,0.4-0.2,0.8-0.1,1.2
		c0.2,0.7,0.4,1,0.7,1.2c0.1,0.3,0.3,0.8,0.7,1.3l0,0c0,0,0,0,0,0c0,0,0,0.1,0.1,0.1c0,0,0.3,0.3,0.7,0.6c0.2,0.1,0.4,0.3,0.7,0.4
		c0,0,0,0,0,0c0.1,0,0.2,0.1,0.3,0.1c0.1,0,0.2,0.1,0.4,0.1c0.1,0,0.1,0,0.2,0c0,0,0,0,0.1,0c0,0,0.1,0,0.1,0c0.6,0,1.1-0.2,1.6-0.6
		c0,0,0.5-0.5,0.8-0.8c0.3-0.5,0.5-0.9,0.6-1.2c0.3-0.2,0.5-0.5,0.7-1.2C245,441.7,245,441.2,244.7,440.9
		C244.7,440.9,244.7,440.9,244.7,440.9z M244.3,442c-0.2,0.8-0.5,0.9-0.6,0.9c0,0,0,0,0,0s0,0.8-0.8,1.6c0,0,0,0,0,0
		c-0.6,0.6-1.1,0.8-1.7,0.8c-0.7,0-1.3-0.5-1.6-0.8c0,0,0,0,0,0c-0.7-0.9-0.8-1.6-0.8-1.6s0,0,0,0c-0.1,0-0.4-0.1-0.6-0.9
		c-0.2-0.6,0-0.8,0.1-0.8c0.1,0,0.1,0,0.1,0c0,0,0,0,0,0l0,0l0.3,0.8c0,0-0.2-2.3,1.1-2.5c0,0,1.3,1.4,2.9,1.6c0,0-0.4-0.6-0.6-1.2
		c0,0,0.9,1.1,1.8,1.2c0,0,0.1-0.2,0.3-0.4c0,0.1,0,0.3-0.1,0.4c0,0,0,0,0.1,0C244.2,441.2,244.4,441.3,244.3,442z"/>
</g>
<g id="XMLID_5_">
	<path id="XMLID_13_" class="st0" d="M528.4,133.3c-8.2,0-14.9,6.7-14.9,14.9s6.7,14.9,14.9,14.9c8.2,0,14.9-6.7,14.9-14.9
		S536.6,133.3,528.4,133.3z M538.8,156.3c0.1-0.3,0.1-0.5,0-0.8c-1-2.5-2.6-3.1-3.9-3.4c-1.1-0.2-2.5-0.6-3-0.9l-2.6,4.3l-0.4-1.7
		c0.5-0.3,0.8-0.7,0.8-1.3c0-0.1,0-0.1,0-0.2c-0.5,0.1-1,0.2-1.5,0.2c-0.5,0-1-0.1-1.5-0.2c0,0.1,0,0.1,0,0.2c0,0.6,0.3,1,0.8,1.3
		l-0.4,1.7l-2.6-4.3c-0.5,0.3-1.9,0.7-2.9,0.9c-1.3,0.2-2.9,0.8-3.9,3.4c0,0.1,0,0.1,0,0.2c-1.5-2.1-2.4-4.7-2.4-7.5
		c0-7.3,5.9-13.2,13.2-13.2c7.3,0,13.2,5.9,13.2,13.2C541.6,151.3,540.6,154.1,538.8,156.3z"/>
	<path id="XMLID_6_" class="st0" d="M534,143.5c0.4-4.1-2.2-6.2-3.7-6.7l0,0l0,0c-0.6-0.2-1.1-0.3-1.7-0.3c-0.1,0-0.2,0-0.3,0
		c-0.1,0-0.2,0-0.3,0c-0.5,0-1.1,0.1-1.7,0.3l0,0l0,0c-1.5,0.5-4.2,2.6-3.7,6.7c0,0,0,0,0,0c-0.5,0.6-0.4,1.4-0.2,2
		c0.3,1.1,0.7,1.7,1.1,2c0.1,0.5,0.4,1.4,1.1,2.2l0,0c0,0,0,0,0,0c0,0,0.1,0.1,0.1,0.1c0,0,0.5,0.5,1.1,1c0.3,0.2,0.7,0.5,1.1,0.6
		c0,0,0,0,0,0c0.1,0.1,0.3,0.1,0.4,0.1c0.2,0.1,0.4,0.1,0.6,0.1c0.1,0,0.2,0,0.3,0c0,0,0.1,0,0.1,0c0.1,0,0.1,0,0.1,0
		c0.9,0,1.8-0.3,2.7-1c0,0,0.9-0.8,1.3-1.3c0.6-0.8,0.9-1.6,1-2.1c0.4-0.3,0.9-0.9,1.1-2C534.4,144.9,534.5,144.1,534,143.5
		C534,143.5,534,143.5,534,143.5z M533.2,145.3c-0.3,1.4-0.9,1.5-1,1.5c0,0,0,0,0,0s-0.1,1.3-1.3,2.7c0,0,0,0,0,0
		c-0.9,0.9-1.9,1.4-2.8,1.4c-1.2,0-2.1-0.9-2.6-1.3c0,0,0,0,0,0c-1.2-1.4-1.3-2.7-1.3-2.7s0,0,0,0c-0.1,0-0.7-0.1-1-1.5
		c-0.2-1.1,0-1.2,0.2-1.2c0.1,0,0.2,0,0.2,0c0,0,0,0,0,0l0,0l0.4,1.4c0,0-0.3-3.8,1.8-4.1c0,0,2.2,2.2,4.9,2.7c0,0-0.6-1.1-1.1-2
		c0,0,1.6,1.8,2.9,2c0,0,0.2-0.3,0.4-0.7c0,0.2-0.1,0.5-0.1,0.7c0,0,0.1,0,0.2,0C533.2,144.1,533.4,144.2,533.2,145.3z"/>
</g>
<g id="XMLID_122_">
	<path id="XMLID_126_" class="st1" d="M222,183.1c-5.4,0-9.8,4.4-9.8,9.8c0,5.4,4.4,9.8,9.8,9.8c5.4,0,9.8-4.4,9.8-9.8
		C231.8,187.5,227.4,183.1,222,183.1z M228.8,198.2c0-0.2,0-0.4,0-0.5c-0.6-1.7-1.7-2.1-2.6-2.2c-0.7-0.1-1.6-0.4-1.9-0.6l-1.7,2.8
		l-0.3-1.1c0.3-0.2,0.5-0.5,0.5-0.9c0,0,0-0.1,0-0.1c-0.3,0.1-0.6,0.1-1,0.1c-0.3,0-0.7-0.1-1-0.1c0,0,0,0.1,0,0.1
		c0,0.4,0.2,0.7,0.5,0.9l-0.3,1.1l-1.7-2.8c-0.3,0.2-1.2,0.4-1.9,0.6c-0.9,0.2-1.9,0.5-2.6,2.2c0,0,0,0.1,0,0.1
		c-1-1.4-1.6-3.1-1.6-4.9c0-4.8,3.9-8.7,8.7-8.7s8.7,3.9,8.7,8.7C230.7,194.9,230,196.7,228.8,198.2z"/>
	<path id="XMLID_123_" class="st1" d="M225.7,189.7c0.3-2.7-1.5-4.1-2.5-4.4l0,0l0,0c-0.4-0.1-0.7-0.2-1.1-0.2c-0.1,0-0.2,0-0.2,0
		c-0.1,0-0.2,0-0.2,0c-0.3,0-0.7,0.1-1.1,0.2l0,0l0,0c-1,0.4-2.7,1.7-2.5,4.4c0,0,0,0,0,0c-0.3,0.4-0.2,0.9-0.1,1.3
		c0.2,0.7,0.5,1.1,0.7,1.3c0.1,0.4,0.3,0.9,0.7,1.5l0,0c0,0,0,0,0,0c0,0,0,0.1,0.1,0.1c0,0,0.3,0.3,0.7,0.7c0.2,0.2,0.4,0.3,0.7,0.4
		c0,0,0,0,0,0c0.1,0,0.2,0.1,0.3,0.1c0.1,0,0.3,0.1,0.4,0.1c0.1,0,0.1,0,0.2,0c0,0,0,0,0.1,0c0,0,0.1,0,0.1,0c0.6,0,1.2-0.2,1.7-0.7
		c0,0,0.6-0.5,0.8-0.8c0.4-0.5,0.6-1,0.6-1.4c0.3-0.2,0.6-0.6,0.7-1.3C225.9,190.7,226,190.2,225.7,189.7
		C225.7,189.8,225.7,189.8,225.7,189.7z M225.1,191c-0.2,0.9-0.6,1-0.7,1c0,0,0,0,0,0s0,0.9-0.8,1.8c0,0,0,0,0,0
		c-0.6,0.6-1.2,0.9-1.9,0.9c-0.8,0-1.4-0.6-1.7-0.9c0,0,0,0,0,0c-0.8-0.9-0.8-1.8-0.8-1.8s0,0,0,0c-0.1,0-0.4-0.1-0.7-1
		c-0.2-0.7,0-0.8,0.1-0.8c0.1,0,0.1,0,0.1,0c0,0,0,0,0,0l0,0l0.3,0.9c0,0-0.2-2.5,1.2-2.7c0,0,1.4,1.5,3.2,1.8c0,0-0.4-0.7-0.7-1.3
		c0,0,1,1.2,1.9,1.3c0,0,0.1-0.2,0.3-0.5c0,0.2,0,0.3-0.1,0.5c0,0,0,0,0.1,0C225.1,190.1,225.3,190.3,225.1,191z"/>
</g>
<g id="XMLID_24_">
	<path id="XMLID_28_" class="st0" d="M549.2,182.7c-8.2,0-14.9,6.7-14.9,14.9s6.7,14.9,14.9,14.9c8.2,0,14.9-6.7,14.9-14.9
		S557.4,182.7,549.2,182.7z M559.6,205.7c0.1-0.3,0.1-0.5,0-0.8c-1-2.5-2.6-3.1-3.9-3.4c-1.1-0.2-2.5-0.6-3-0.9l-2.6,4.3l-0.4-1.7
		c0.5-0.3,0.8-0.7,0.8-1.3c0-0.1,0-0.1,0-0.2c-0.5,0.1-1,0.2-1.5,0.2c-0.5,0-1-0.1-1.5-0.2c0,0.1,0,0.1,0,0.2c0,0.6,0.3,1,0.8,1.3
		l-0.4,1.7l-2.6-4.3c-0.5,0.3-1.9,0.7-2.9,0.9c-1.3,0.2-2.9,0.8-3.9,3.4c0,0.1,0,0.1,0,0.2c-1.5-2.1-2.4-4.7-2.4-7.5
		c0-7.3,5.9-13.2,13.2-13.2c7.3,0,13.2,5.9,13.2,13.2C562.4,200.6,561.4,203.4,559.6,205.7z"/>
	<path id="XMLID_25_" class="st0" d="M554.8,192.8c0.4-4.1-2.2-6.2-3.7-6.7l0,0l0,0c-0.6-0.2-1.1-0.3-1.7-0.3c-0.1,0-0.2,0-0.3,0
		c-0.1,0-0.2,0-0.3,0c-0.5,0-1.1,0.1-1.7,0.3l0,0l0,0c-1.5,0.5-4.2,2.6-3.7,6.7c0,0,0,0,0,0c-0.5,0.6-0.4,1.4-0.2,2
		c0.3,1.1,0.7,1.7,1.1,2c0.1,0.5,0.4,1.4,1.1,2.2l0,0c0,0,0,0,0,0c0,0,0.1,0.1,0.1,0.1c0,0,0.5,0.5,1.1,1c0.3,0.2,0.7,0.5,1.1,0.6
		c0,0,0,0,0,0c0.1,0.1,0.3,0.1,0.4,0.1c0.2,0.1,0.4,0.1,0.6,0.1c0.1,0,0.2,0,0.3,0c0,0,0.1,0,0.1,0c0.1,0,0.1,0,0.1,0
		c0.9,0,1.8-0.3,2.7-1c0,0,0.9-0.8,1.3-1.3c0.6-0.8,0.9-1.6,1-2.1c0.4-0.3,0.9-0.9,1.1-2C555.2,194.2,555.3,193.4,554.8,192.8
		C554.8,192.8,554.8,192.8,554.8,192.8z M554,194.6c-0.3,1.4-0.9,1.5-1,1.5c0,0,0,0,0,0s-0.1,1.3-1.3,2.7c0,0,0,0,0,0
		c-0.9,0.9-1.9,1.4-2.8,1.4c-1.2,0-2.1-0.9-2.6-1.3c0,0,0,0,0,0c-1.2-1.4-1.3-2.7-1.3-2.7s0,0,0,0c-0.1,0-0.7-0.1-1-1.5
		c-0.2-1.1,0-1.2,0.2-1.2c0.1,0,0.2,0,0.2,0c0,0,0,0,0,0l0,0l0.4,1.4c0,0-0.3-3.8,1.8-4.1c0,0,2.2,2.2,4.9,2.7c0,0-0.6-1.1-1.1-2
		c0,0,1.6,1.8,2.9,2c0,0,0.2-0.3,0.4-0.7c0,0.2-0.1,0.5-0.1,0.7c0,0,0.1,0,0.2,0C554,193.4,554.2,193.6,554,194.6z"/>
</g>
<g id="XMLID_2_">
	<path id="XMLID_8_" class="st0" d="M435.6,81.5c-9.9,0-18,8.1-18,18s8.1,18,18,18c9.9,0,18-8.1,18-18S445.6,81.5,435.6,81.5z
		 M431,97.5l0.4-2.1c0.4-0.1,0.8-0.1,1.2-0.2c1.7-0.4,3.3-1.3,4.4-2c0.8-0.6,1.5-1.1,1.9-1.5c0.2,0.6,0.8,2.1,1.9,3.3v1.4l0.3-1.1
		c0,0,0,0,0,0c0,0,0,0,0,0.1c0,0,0,0,0.1,0c0.2,0.2,0.3,0.3,0.5,0.4c0,0.2,0,0.6-0.1,1c-0.4,1.6-1,1.7-1.2,1.7c0,0,0,0,0,0
		s-0.1,1.5-1.5,3.2c0,0,0,0,0,0c-1.1,1.1-2.2,1.7-3.4,1.6c-1.4-0.1-2.5-1-3.1-1.6c0,0,0,0,0,0c-1.4-1.7-1.5-3.2-1.5-3.2s0,0,0,0
		c-0.1,0-0.3,0-0.6-0.3l-0.3-0.5c-0.1-0.2-0.2-0.5-0.3-0.9c-0.2-0.9-0.1-1.3,0-1.4c0.3,0,0.6,0,0.9,0l0,0L431,97.5z M432.4,104.6
		c0.1-0.2,0.1-0.6,0.1-1c0.7,0.6,1.7,1.1,2.9,1.1c0.1,0,0.1,0,0.2,0c1.1,0,2.1-0.4,3.2-1.2c0,0.5,0,0.9,0.1,1.1
		c0.3,0.7,3.2,1.4,4.4,1.7c0.8,0.1,1.6,0.4,2.4,1.1c-3.5,1.2-6.6,1.7-9.3,1.9l-0.8,0.8l-0.8-0.8c-5.9,0-9.4-1.9-9.4-1.9
		c0.8-0.8,1.7-1,2.4-1.1C429.2,106,432.1,105.3,432.4,104.6z M447,109.8v-0.4c0,0,0,0.1,0,0.1C447.1,109.6,447.1,109.7,447,109.8z
		 M448.3,109.3c0-0.1,0-0.2-0.1-0.3c-1-2.7-2.7-3.6-4.2-3.9c-1.6-1.7-1.2-8.3-1.2-8.3c0-0.1,0-0.2,0.1-0.3c0,0,0,0,0,0
		c0,0,2.1-7.2-3.5-9.8c0,0-1-0.2-1.8-0.1c-0.5-0.1-1.1-0.2-1.6-0.2c-0.1,0-0.3,0-0.4,0c-0.1,0-0.3,0-0.4,0c-0.6,0-1.3,0.1-2,0.3l0,0
		l0,0c-1.8,0.6-4.9,3.1-4.5,8c0,0,0,0,0,0c-0.5,0.6-0.4,1.5-0.3,2.3c0,1.5,0.1,5.8-0.3,7.9c-0.1,0-0.3,0.1-0.4,0.1
		c-1.6,0.3-3.5,1-4.7,4c0,0.1,0,0.2-0.1,0.3c-2.1-2.7-3.4-6.1-3.4-9.8c0-8.8,7.2-16,16-16s16,7.2,16,16
		C451.6,103.2,450.4,106.6,448.3,109.3z"/>
</g>
<g id="XMLID_31_">
	<path id="XMLID_32_" class="st1" d="M301.5,146.3c-5.7,0-10.3,4.6-10.3,10.3c0,5.7,4.6,10.3,10.3,10.3c5.7,0,10.3-4.6,10.3-10.3
		C311.8,151,307.2,146.3,301.5,146.3z M298.8,155.5l0.2-1.2c0.2,0,0.5-0.1,0.7-0.1c1-0.2,1.9-0.7,2.5-1.2c0.5-0.3,0.9-0.6,1.1-0.8
		c0.1,0.4,0.5,1.2,1.1,1.9v0.8l0.2-0.6c0,0,0,0,0,0c0,0,0,0,0,0c0,0,0,0,0,0c0.1,0.1,0.2,0.2,0.3,0.2c0,0.1,0,0.3-0.1,0.6
		c-0.2,0.9-0.6,1-0.7,1c0,0,0,0,0,0s0,0.9-0.9,1.8c0,0,0,0,0,0c-0.6,0.6-1.3,1-1.9,0.9c-0.8,0-1.4-0.6-1.8-0.9c0,0,0,0,0,0
		c-0.8-1-0.9-1.9-0.9-1.9s0,0,0,0c0,0-0.2,0-0.3-0.2l-0.2-0.3c-0.1-0.1-0.1-0.3-0.2-0.5c-0.1-0.5-0.1-0.7,0-0.8c0.2,0,0.3,0,0.5,0
		l0,0L298.8,155.5z M299.6,159.6c0-0.1,0.1-0.3,0.1-0.6c0.4,0.3,1,0.6,1.7,0.7c0,0,0.1,0,0.1,0c0.6,0,1.2-0.2,1.8-0.7
		c0,0.3,0,0.5,0.1,0.6c0.1,0.4,1.9,0.8,2.6,1c0.4,0.1,0.9,0.2,1.4,0.7c-2,0.7-3.8,1-5.3,1.1l-0.5,0.5l-0.4-0.4
		c-3.4,0-5.4-1.1-5.4-1.1c0.5-0.4,1-0.6,1.4-0.7C297.7,160.4,299.5,160,299.6,159.6z M308,162.6v-0.2c0,0,0,0,0,0
		C308.1,162.5,308,162.5,308,162.6z M308.7,162.3c0,0,0-0.1,0-0.1c-0.6-1.6-1.5-2-2.4-2.2c-0.9-1-0.7-4.8-0.7-4.8c0-0.1,0-0.1,0-0.2
		c0,0,0,0,0,0c0,0,1.2-4.1-2-5.6c0,0-0.6-0.1-1,0c-0.3-0.1-0.6-0.1-0.9-0.1c-0.1,0-0.2,0-0.2,0c-0.1,0-0.2,0-0.2,0
		c-0.4,0-0.7,0.1-1.1,0.2l0,0l0,0c-1.1,0.4-2.8,1.8-2.6,4.6c0,0,0,0,0,0c-0.3,0.4-0.2,0.9-0.2,1.3c0,0.9,0.1,3.3-0.2,4.6
		c-0.1,0-0.2,0-0.2,0c-0.9,0.2-2,0.6-2.7,2.3c0,0,0,0.1,0,0.1c-1.2-1.6-1.9-3.5-1.9-5.6c0-5.1,4.1-9.2,9.2-9.2
		c5.1,0,9.2,4.1,9.2,9.2C310.7,158.8,309.9,160.7,308.7,162.3z"/>
</g>
<g id="XMLID_108_">
	<path id="XMLID_109_" class="st1" d="M72.5,210.7c-5.7,0-10.3,4.6-10.3,10.3c0,5.7,4.6,10.3,10.3,10.3c5.7,0,10.3-4.6,10.3-10.3
		C82.8,215.3,78.2,210.7,72.5,210.7z M69.8,219.9l0.2-1.2c0.2,0,0.5-0.1,0.7-0.1c1-0.2,1.9-0.7,2.5-1.2c0.5-0.3,0.9-0.6,1.1-0.8
		c0.1,0.4,0.5,1.2,1.1,1.9v0.8l0.2-0.6c0,0,0,0,0,0c0,0,0,0,0,0c0,0,0,0,0,0c0.1,0.1,0.2,0.2,0.3,0.2c0,0.1,0,0.3-0.1,0.6
		c-0.2,0.9-0.6,1-0.7,1c0,0,0,0,0,0s0,0.9-0.9,1.8c0,0,0,0,0,0c-0.6,0.6-1.3,1-1.9,0.9c-0.8,0-1.4-0.6-1.8-0.9c0,0,0,0,0,0
		c-0.8-1-0.9-1.9-0.9-1.9s0,0,0,0c0,0-0.2,0-0.3-0.2l-0.2-0.3c-0.1-0.1-0.1-0.3-0.2-0.5c-0.1-0.5-0.1-0.7,0-0.8c0.2,0,0.3,0,0.5,0
		l0,0L69.8,219.9z M70.6,223.9c0-0.1,0.1-0.3,0.1-0.6c0.4,0.3,1,0.6,1.7,0.7c0,0,0.1,0,0.1,0c0.6,0,1.2-0.2,1.8-0.7
		c0,0.3,0,0.5,0.1,0.6c0.1,0.4,1.9,0.8,2.6,1c0.4,0.1,0.9,0.2,1.4,0.7c-2,0.7-3.8,1-5.3,1.1l-0.5,0.5l-0.4-0.4
		c-3.4,0-5.4-1.1-5.4-1.1c0.5-0.4,1-0.6,1.4-0.7C68.7,224.8,70.5,224.3,70.6,223.9z M79,226.9v-0.2c0,0,0,0,0,0
		C79.1,226.8,79,226.9,79,226.9z M79.7,226.6c0,0,0-0.1,0-0.1c-0.6-1.6-1.5-2-2.4-2.2c-0.9-1-0.7-4.8-0.7-4.8c0-0.1,0-0.1,0-0.2
		c0,0,0,0,0,0c0,0,1.2-4.1-2-5.6c0,0-0.6-0.1-1,0c-0.3-0.1-0.6-0.1-0.9-0.1c-0.1,0-0.2,0-0.2,0c-0.1,0-0.2,0-0.2,0
		c-0.4,0-0.7,0.1-1.1,0.2l0,0l0,0c-1.1,0.4-2.8,1.8-2.6,4.6c0,0,0,0,0,0c-0.3,0.4-0.2,0.9-0.2,1.3c0,0.9,0.1,3.3-0.2,4.6
		c-0.1,0-0.2,0-0.2,0c-0.9,0.2-2,0.6-2.7,2.3c0,0,0,0.1,0,0.1c-1.2-1.6-1.9-3.5-1.9-5.6c0-5.1,4.1-9.2,9.2-9.2
		c5.1,0,9.2,4.1,9.2,9.2C81.7,223.1,80.9,225.1,79.7,226.6z"/>
</g>
<g id="XMLID_38_">
	<path id="XMLID_39_" class="st1" d="M241.4,212.9c-8,0-14.4,6.5-14.4,14.4c0,8,6.5,14.4,14.4,14.4c8,0,14.4-6.5,14.4-14.4
		C255.8,219.3,249.3,212.9,241.4,212.9z M237.7,225.7l0.3-1.7c0.3,0,0.7-0.1,1-0.2c1.4-0.3,2.6-1,3.5-1.6c0.7-0.5,1.2-0.9,1.5-1.2
		c0.2,0.5,0.7,1.7,1.5,2.7v1.1l0.3-0.9c0,0,0,0,0,0c0,0,0,0,0,0c0,0,0,0,0,0c0.1,0.1,0.3,0.2,0.4,0.3c0,0.2,0,0.4-0.1,0.8
		c-0.3,1.3-0.8,1.4-1,1.4c0,0,0,0,0,0s-0.1,1.2-1.2,2.6c0,0,0,0,0,0c-0.9,0.9-1.8,1.3-2.7,1.3c-1.1,0-2-0.8-2.5-1.3c0,0,0,0,0,0
		c-1.2-1.3-1.2-2.6-1.2-2.6s0,0,0,0c-0.1,0-0.3,0-0.5-0.3l-0.2-0.4c-0.1-0.2-0.2-0.4-0.2-0.7c-0.2-0.7-0.1-1,0-1.1
		c0.2,0,0.5,0,0.7,0l0,0L237.7,225.7z M238.8,231.4c0.1-0.2,0.1-0.5,0.1-0.8c0.6,0.4,1.4,0.9,2.4,0.9c0.1,0,0.1,0,0.2,0
		c0.9,0,1.7-0.3,2.5-0.9c0,0.4,0,0.7,0.1,0.9c0.2,0.6,2.6,1.2,3.6,1.3c0.6,0.1,1.3,0.3,1.9,0.9c-2.8,1-5.3,1.4-7.4,1.5l-0.7,0.7
		l-0.6-0.6c-4.7,0-7.5-1.5-7.5-1.5c0.6-0.6,1.3-0.8,1.9-0.9C236.2,232.5,238.6,231.9,238.8,231.4z M250.5,235.5v-0.3c0,0,0,0,0,0.1
		C250.6,235.4,250.5,235.5,250.5,235.5z M251.5,235.1c0-0.1,0-0.1-0.1-0.2c-0.8-2.2-2.2-2.9-3.3-3.1c-1.2-1.4-1-6.7-1-6.7
		c0-0.1,0-0.2,0-0.3h0c0,0,1.7-5.8-2.8-7.8c0,0-0.8-0.2-1.4,0c-0.4-0.1-0.9-0.2-1.2-0.2c-0.1,0-0.2,0-0.3,0c-0.1,0-0.2,0-0.3,0
		c-0.5,0-1,0.1-1.6,0.3l0,0l0,0c-1.5,0.5-4,2.5-3.6,6.4c0,0,0,0,0,0c-0.4,0.5-0.3,1.2-0.2,1.8c0,1.2,0.1,4.6-0.2,6.4
		c-0.1,0-0.2,0-0.3,0.1c-1.3,0.2-2.8,0.8-3.7,3.2c0,0.1,0,0.1-0.1,0.2c-1.7-2.2-2.7-4.9-2.7-7.8c0-7.1,5.8-12.8,12.8-12.8
		s12.8,5.8,12.8,12.8C254.2,230.2,253.2,233,251.5,235.1z"/>
</g>
<g id="XMLID_45_">
	<path id="XMLID_46_" class="st0" d="M390.6,277.4c-4.4,0-8,3.6-8,8c0,4.4,3.6,8,8,8c4.4,0,8-3.6,8-8
		C398.6,281,395,277.4,390.6,277.4z M388.6,284.5l0.2-0.9c0.2,0,0.4-0.1,0.6-0.1c0.8-0.2,1.4-0.6,2-0.9c0.4-0.3,0.7-0.5,0.8-0.7
		c0.1,0.3,0.4,1,0.8,1.5v0.6l0.1-0.5c0,0,0,0,0,0c0,0,0,0,0,0c0,0,0,0,0,0c0.1,0.1,0.1,0.1,0.2,0.2c0,0.1,0,0.2,0,0.5
		c-0.2,0.7-0.5,0.8-0.5,0.8c0,0,0,0,0,0s0,0.7-0.7,1.4c0,0,0,0,0,0c-0.5,0.5-1,0.7-1.5,0.7c-0.6,0-1.1-0.5-1.4-0.7c0,0,0,0,0,0
		c-0.6-0.7-0.7-1.4-0.7-1.4s0,0,0,0c0,0-0.1,0-0.3-0.2l-0.1-0.2c0-0.1-0.1-0.2-0.1-0.4c-0.1-0.4-0.1-0.6,0-0.6c0.1,0,0.3,0,0.4,0
		l0,0L388.6,284.5z M389.2,287.7c0-0.1,0-0.3,0.1-0.5c0.3,0.2,0.8,0.5,1.3,0.5c0,0,0.1,0,0.1,0c0.5,0,1-0.2,1.4-0.5
		c0,0.2,0,0.4,0.1,0.5c0.1,0.3,1.4,0.6,2,0.7c0.3,0.1,0.7,0.2,1.1,0.5c-1.5,0.5-2.9,0.8-4.1,0.8l-0.4,0.4l-0.3-0.3
		c-2.6,0-4.2-0.8-4.2-0.8c0.3-0.3,0.7-0.4,1.1-0.5C387.7,288.3,389.1,288,389.2,287.7z M395.7,290v-0.2c0,0,0,0,0,0
		C395.7,289.9,395.7,290,395.7,290z M396.3,289.8c0,0,0-0.1,0-0.1c-0.5-1.2-1.2-1.6-1.8-1.7c-0.7-0.8-0.5-3.7-0.5-3.7
		c0,0,0-0.1,0-0.2c0,0,0,0,0,0c0,0,1-3.2-1.6-4.4c0,0-0.5-0.1-0.8,0c-0.2-0.1-0.5-0.1-0.7-0.1c-0.1,0-0.1,0-0.2,0
		c-0.1,0-0.1,0-0.2,0c-0.3,0-0.6,0-0.9,0.1l0,0l0,0c-0.8,0.3-2.2,1.4-2,3.5c0,0,0,0,0,0c-0.2,0.3-0.2,0.7-0.1,1
		c0,0.7,0.1,2.6-0.1,3.5c-0.1,0-0.1,0-0.2,0c-0.7,0.1-1.6,0.4-2.1,1.8c0,0,0,0.1,0,0.1c-0.9-1.2-1.5-2.7-1.5-4.3
		c0-3.9,3.2-7.1,7.1-7.1s7.1,3.2,7.1,7.1C397.7,287.1,397.2,288.6,396.3,289.8z"/>
</g>
<g id="XMLID_52_">
	<path id="XMLID_53_" class="st1" d="M216.6,354.3c-7.2,0-13.1,5.9-13.1,13.1c0,7.2,5.9,13.1,13.1,13.1c7.2,0,13.1-5.9,13.1-13.1
		C229.7,360.2,223.8,354.3,216.6,354.3z M213.2,366l0.3-1.5c0.3,0,0.6-0.1,0.9-0.2c1.3-0.3,2.4-0.9,3.2-1.5c0.6-0.4,1.1-0.8,1.4-1.1
		c0.2,0.4,0.6,1.6,1.4,2.4v1l0.2-0.8c0,0,0,0,0,0c0,0,0,0,0,0c0,0,0,0,0,0c0.1,0.1,0.2,0.2,0.4,0.3c0,0.2,0,0.4-0.1,0.8
		c-0.3,1.2-0.8,1.3-0.9,1.3c0,0,0,0,0,0s-0.1,1.1-1.1,2.3c0,0,0,0,0,0c-0.8,0.8-1.6,1.2-2.5,1.2c-1,0-1.8-0.7-2.2-1.2c0,0,0,0,0,0
		c-1.1-1.2-1.1-2.4-1.1-2.4s0,0,0,0c-0.1,0-0.2,0-0.4-0.2l-0.2-0.3c-0.1-0.2-0.2-0.4-0.2-0.7c-0.2-0.6-0.1-0.9,0-1
		c0.2,0,0.4,0,0.7,0l0,0L213.2,366z M214.2,371.2c0.1-0.2,0.1-0.4,0.1-0.8c0.5,0.4,1.3,0.8,2.1,0.8c0,0,0.1,0,0.1,0
		c0.8,0,1.6-0.3,2.3-0.9c0,0.3,0,0.6,0.1,0.8c0.2,0.5,2.4,1,3.2,1.2c0.6,0.1,1.2,0.3,1.8,0.8c-2.5,0.9-4.8,1.3-6.8,1.4l-0.6,0.6
		l-0.6-0.6c-4.3,0-6.8-1.4-6.8-1.4c0.6-0.6,1.2-0.7,1.8-0.8C211.8,372.2,214,371.7,214.2,371.2z M224.9,375v-0.3c0,0,0,0,0,0.1
		C224.9,374.8,224.9,374.9,224.9,375z M225.8,374.6c0-0.1,0-0.1,0-0.2c-0.8-2-2-2.6-3-2.9c-1.1-1.2-0.9-6.1-0.9-6.1
		c0-0.1,0-0.2,0-0.2c0,0,0,0,0,0c0,0,1.6-5.3-2.6-7.1c0,0-0.7-0.2-1.3,0c-0.4-0.1-0.8-0.2-1.1-0.2c-0.1,0-0.2,0-0.3,0
		c-0.1,0-0.2,0-0.3,0c-0.5,0-0.9,0.1-1.4,0.2l0,0l0,0c-1.3,0.5-3.6,2.3-3.3,5.8c0,0,0,0,0,0c-0.4,0.5-0.3,1.1-0.2,1.6
		c0,1.1,0.1,4.2-0.2,5.8c-0.1,0-0.2,0-0.3,0.1c-1.1,0.2-2.6,0.7-3.4,2.9c0,0.1,0,0.1,0,0.2c-1.5-2-2.5-4.4-2.5-7.1
		c0-6.4,5.2-11.7,11.7-11.7s11.7,5.2,11.7,11.7C228.2,370.2,227.3,372.6,225.8,374.6z"/>
</g>
<g id="XMLID_87_">
	<path id="XMLID_88_" class="st1" d="M135,266.1c-4.8,0-8.8,3.9-8.8,8.8s3.9,8.8,8.8,8.8c4.8,0,8.8-3.9,8.8-8.8
		S139.8,266.1,135,266.1z M132.7,273.9l0.2-1c0.2,0,0.4-0.1,0.6-0.1c0.8-0.2,1.6-0.6,2.1-1c0.4-0.3,0.7-0.6,0.9-0.7
		c0.1,0.3,0.4,1,0.9,1.6v0.7l0.2-0.5c0,0,0,0,0,0c0,0,0,0,0,0c0,0,0,0,0,0c0.1,0.1,0.2,0.1,0.2,0.2c0,0.1,0,0.3-0.1,0.5
		c-0.2,0.8-0.5,0.9-0.6,0.9c0,0,0,0,0,0s0,0.8-0.7,1.6c0,0,0,0,0,0c-0.5,0.5-1.1,0.8-1.6,0.8c-0.7,0-1.2-0.5-1.5-0.8c0,0,0,0,0,0
		c-0.7-0.8-0.7-1.6-0.7-1.6s0,0,0,0c0,0-0.2,0-0.3-0.2l-0.1-0.2c-0.1-0.1-0.1-0.3-0.2-0.5c-0.1-0.4-0.1-0.6,0-0.7c0.1,0,0.3,0,0.4,0
		l0,0L132.7,273.9z M133.4,277.3c0-0.1,0.1-0.3,0.1-0.5c0.4,0.3,0.9,0.5,1.4,0.6c0,0,0.1,0,0.1,0c0.5,0,1-0.2,1.5-0.6
		c0,0.2,0,0.4,0.1,0.5c0.1,0.3,1.6,0.7,2.2,0.8c0.4,0.1,0.8,0.2,1.2,0.6c-1.7,0.6-3.2,0.8-4.5,0.9L135,280l-0.4-0.4
		c-2.9,0-4.6-0.9-4.6-0.9c0.4-0.4,0.8-0.5,1.2-0.6C131.8,278,133.3,277.7,133.4,277.3z M140.5,279.9v-0.2c0,0,0,0,0,0
		C140.6,279.8,140.6,279.8,140.5,279.9z M141.2,279.6c0,0,0-0.1,0-0.1c-0.5-1.3-1.3-1.7-2-1.9c-0.8-0.8-0.6-4.1-0.6-4.1
		c0-0.1,0-0.1,0-0.2c0,0,0,0,0,0c0,0,1-3.5-1.7-4.8c0,0-0.5-0.1-0.9,0c-0.3-0.1-0.5-0.1-0.8-0.1c-0.1,0-0.1,0-0.2,0
		c-0.1,0-0.1,0-0.2,0c-0.3,0-0.6,0.1-1,0.2l0,0l0,0c-0.9,0.3-2.4,1.5-2.2,3.9c0,0,0,0,0,0c-0.2,0.3-0.2,0.7-0.1,1.1
		c0,0.7,0.1,2.8-0.1,3.9c-0.1,0-0.1,0-0.2,0c-0.8,0.1-1.7,0.5-2.3,2c0,0,0,0.1,0,0.1c-1-1.3-1.6-3-1.6-4.8c0-4.3,3.5-7.8,7.8-7.8
		c4.3,0,7.8,3.5,7.8,7.8C142.8,276.6,142.2,278.3,141.2,279.6z"/>
</g>
<g id="XMLID_94_">
	<path id="XMLID_95_" class="st0" d="M493.3,382.7c-9.9,0-17.9,8-17.9,17.9s8,17.9,17.9,17.9c9.9,0,17.9-8,17.9-17.9
		S503.2,382.7,493.3,382.7z M488.7,398.6l0.4-2.1c0.4-0.1,0.8-0.1,1.2-0.2c1.7-0.4,3.2-1.3,4.4-2c0.8-0.6,1.5-1.1,1.9-1.5
		c0.2,0.6,0.8,2.1,1.9,3.3v1.4l0.3-1.1c0,0,0,0,0,0c0,0,0,0,0,0.1c0,0,0,0,0,0c0.2,0.1,0.3,0.3,0.5,0.4c0,0.2,0,0.5-0.1,1
		c-0.4,1.6-1,1.7-1.2,1.7c0,0,0,0,0,0s-0.1,1.5-1.5,3.2c0,0,0,0,0,0c-1.1,1.1-2.2,1.7-3.3,1.6c-1.4-0.1-2.5-1-3-1.6c0,0,0,0,0,0
		c-1.4-1.7-1.5-3.2-1.5-3.2s0,0,0,0c-0.1,0-0.3,0-0.6-0.3l-0.3-0.5c-0.1-0.2-0.2-0.5-0.3-0.9c-0.2-0.9-0.1-1.2,0-1.4
		c0.3,0,0.6,0,0.9,0l0,0L488.7,398.6z M490.1,405.7c0.1-0.2,0.1-0.6,0.1-1c0.7,0.6,1.7,1.1,2.9,1.1c0.1,0,0.1,0,0.2,0
		c1.1,0,2.1-0.4,3.1-1.2c0,0.4,0,0.9,0.1,1.1c0.3,0.7,3.2,1.4,4.4,1.6c0.8,0.1,1.6,0.4,2.4,1.1c-3.4,1.2-6.5,1.7-9.2,1.9l-0.8,0.8
		l-0.8-0.8c-5.8,0-9.3-1.9-9.3-1.9c0.8-0.8,1.6-1,2.4-1.1C486.9,407.1,489.8,406.4,490.1,405.7z M504.6,410.8v-0.4c0,0,0,0.1,0,0.1
		C504.7,410.6,504.7,410.7,504.6,410.8z M505.9,410.3c0-0.1,0-0.2-0.1-0.3c-1-2.7-2.7-3.5-4.1-3.9c-1.5-1.7-1.2-8.3-1.2-8.3
		c0-0.1,0-0.2,0.1-0.3c0,0,0,0,0,0c0,0,2.1-7.2-3.5-9.7c0,0-1-0.2-1.8-0.1c-0.5-0.1-1.1-0.2-1.5-0.2c-0.1,0-0.3,0-0.4,0
		c-0.1,0-0.3,0-0.4,0c-0.6,0-1.3,0.1-2,0.3l0,0l0,0c-1.8,0.6-4.9,3.1-4.4,7.9c0,0,0,0,0,0c-0.5,0.6-0.4,1.5-0.3,2.2
		c0,1.5,0.1,5.8-0.3,7.9c-0.1,0-0.3,0.1-0.4,0.1c-1.6,0.3-3.5,1-4.6,4c0,0.1,0,0.2-0.1,0.3c-2.1-2.7-3.3-6.1-3.3-9.7
		c0-8.8,7.1-15.9,15.9-15.9c8.8,0,15.9,7.1,15.9,15.9C509.2,404.3,508,407.6,505.9,410.3z"/>
</g>
<line id="XMLID_132_" class="st2" x1="509.2" y1="305.3" x2="544.5" y2="350.5"/>
<line id="XMLID_134_" class="st2" x1="452" y1="314.5" x2="484.4" y2="385.1"/>
<line id="XMLID_135_" class="st2" x1="511.3" y1="238.5" x2="503.8" y2="280.2"/>
<line id="XMLID_136_" class="st2" x1="551.7" y1="212.2" x2="576.8" y2="303.3"/>
<polyline id="XMLID_137_" class="st2" points="515.2,141.4 485,121.5 484.4,184.8 "/>
<polyline id="XMLID_139_" class="st2" points="485.5,118.9 411,310 364.3,314.5 312,269.8 "/>
<polyline id="XMLID_140_" class="st2" points="389,365 365,316.3 306,334 383.5,372.8 "/>
<line id="XMLID_142_" class="st2" x1="482.3" y1="118.9" x2="452.4" y2="106"/>
<line id="XMLID_143_" class="st2" x1="423.5" y1="162.3" x2="484.4" y2="120.3"/>
<polyline id="XMLID_138_" class="st2" points="420.6,109.4 360.3,151.9 357.8,159 372,212.2 401,181.1 "/>
<line id="XMLID_145_" class="st2" x1="360.5" y1="155.6" x2="396.1" y2="167.4"/>
<polyline id="XMLID_147_" class="st2" points="449.8,314.5 448.3,382.7 411.5,311.3 449.8,311.3 487.3,300.6 "/>
<polyline id="XMLID_148_" class="st3" points="476.5,394.7 449.4,384.7 407.5,380 "/>
<line id="XMLID_152_" class="st3" x1="305.8" y1="336.5" x2="301.5" y2="380.6"/>
<line id="XMLID_153_" class="st2" x1="409.1" y1="308.3" x2="394.8" y2="291.4"/>
<circle id="XMLID_150_" class="st0" cx="364.1" cy="314.5" r="2.4"/>
<circle id="XMLID_154_" class="st0" cx="306.1" cy="333.8" r="3.3"/>
<circle id="XMLID_156_" class="st0" cx="448.5" cy="384.4" r="3.5"/>
<circle id="XMLID_157_" class="st0" cx="437.6" cy="426.7" r="1.9"/>
<circle id="XMLID_160_" class="st4" cx="126.9" cy="385.4" r="3.1"/>
<circle id="XMLID_130_" class="st4" cx="357.6" cy="155.4" r="4.8"/>
<circle id="XMLID_161_" class="st0" cx="573" cy="461.4" r="1.7"/>
<circle id="XMLID_162_" class="st0" cx="546.4" cy="352.9" r="3.1"/>
<circle id="XMLID_163_" class="st0" cx="451" cy="312.3" r="5"/>
<circle id="XMLID_165_" class="st0" cx="512.2" cy="236.2" r="3.9"/>
<circle id="XMLID_166_" class="st0" cx="577.3" cy="305.3" r="2"/>
<circle id="XMLID_146_" class="st0" cx="440.3" cy="234.7" r="3.4"/>
<circle id="XMLID_169_" class="st0" cx="388.6" cy="238.8" r="2"/>
<circle id="XMLID_171_" class="st0" cx="484.6" cy="184.9" r="2.3"/>
<circle id="XMLID_172_" class="st0" cx="484.3" cy="120.3" r="4.1"/>
<circle id="XMLID_175_" class="st0" cx="372.3" cy="212.2" r="4.3"/>
<circle id="XMLID_179_" class="st0" cx="410.5" cy="310.3" r="4.3"/>
<circle id="XMLID_3_" class="st5" cx="295.3" cy="257.4" r="21.4"/>
<path id="XMLID_176_" class="st3" d="M388.6,240.8"/>
<polyline id="XMLID_180_" class="st2" points="388.6,238.8 390.6,277.4 318,260.5 "/>
<polyline id="XMLID_178_" class="st6" points="293.3,389.6 247.5,398.6 225.1,377.5 "/>
<line id="XMLID_182_" class="st2" x1="241.4" y1="434.8" x2="247.5" y2="398.6"/>
<circle id="XMLID_159_" class="st0" cx="247.5" cy="398.6" r="2"/>
<g id="XMLID_59_">
	<path id="XMLID_60_" class="st1" d="M302.7,380.3c-5.1,0-9.3,4.2-9.3,9.3c0,5.1,4.2,9.3,9.3,9.3c5.1,0,9.3-4.2,9.3-9.3
		C312,384.5,307.8,380.3,302.7,380.3z M300.3,388.6l0.2-1.1c0.2,0,0.4-0.1,0.6-0.1c0.9-0.2,1.7-0.7,2.3-1.1c0.4-0.3,0.8-0.6,1-0.8
		c0.1,0.3,0.4,1.1,1,1.7v0.7l0.2-0.6c0,0,0,0,0,0c0,0,0,0,0,0c0,0,0,0,0,0c0.1,0.1,0.2,0.1,0.3,0.2c0,0.1,0,0.3-0.1,0.5
		c-0.2,0.9-0.5,0.9-0.6,0.9c0,0,0,0,0,0s0,0.8-0.8,1.7c0,0,0,0,0,0c-0.6,0.6-1.2,0.9-1.7,0.8c-0.7,0-1.3-0.5-1.6-0.8c0,0,0,0,0,0
		c-0.7-0.9-0.8-1.7-0.8-1.7s0,0,0,0c0,0-0.2,0-0.3-0.2l-0.2-0.2c-0.1-0.1-0.1-0.3-0.2-0.5c-0.1-0.5-0.1-0.6,0-0.7c0.2,0,0.3,0,0.5,0
		l0,0L300.3,388.6z M301,392.3c0-0.1,0.1-0.3,0.1-0.5c0.4,0.3,0.9,0.6,1.5,0.6c0,0,0.1,0,0.1,0c0.6,0,1.1-0.2,1.6-0.6
		c0,0.2,0,0.4,0.1,0.6c0.1,0.4,1.7,0.7,2.3,0.9c0.4,0.1,0.8,0.2,1.2,0.6c-1.8,0.6-3.4,0.9-4.8,1l-0.4,0.4l-0.4-0.4c-3,0-4.9-1-4.9-1
		c0.4-0.4,0.9-0.5,1.2-0.6C299.3,393,300.8,392.6,301,392.3z M308.5,395v-0.2c0,0,0,0,0,0C308.6,394.8,308.6,394.9,308.5,395z
		 M309.2,394.7c0,0,0-0.1,0-0.1c-0.5-1.4-1.4-1.8-2.2-2c-0.8-0.9-0.6-4.3-0.6-4.3c0-0.1,0-0.1,0-0.2h0c0,0,1.1-3.7-1.8-5.1
		c0,0-0.5-0.1-0.9,0c-0.3-0.1-0.6-0.1-0.8-0.1c-0.1,0-0.1,0-0.2,0c-0.1,0-0.1,0-0.2,0c-0.3,0-0.7,0.1-1,0.2l0,0l0,0
		c-0.9,0.3-2.6,1.6-2.3,4.1c0,0,0,0,0,0c-0.3,0.3-0.2,0.8-0.1,1.2c0,0.8,0.1,3-0.1,4.1c-0.1,0-0.1,0-0.2,0c-0.8,0.1-1.8,0.5-2.4,2.1
		c0,0,0,0.1,0,0.1c-1.1-1.4-1.7-3.2-1.7-5.1c0-4.6,3.7-8.3,8.3-8.3c4.6,0,8.3,3.7,8.3,8.3C310.9,391.5,310.3,393.3,309.2,394.7z"/>
</g>
<line id="XMLID_183_" class="st6" x1="286.3" y1="276.8" x2="221" y2="355.8"/>
<line id="XMLID_184_" class="st6" x1="140.5" y1="269.4" x2="231.3" y2="234.9"/>
<polyline id="XMLID_181_" class="st6" points="255.8,227.3 286.9,218.7 295.3,235.9 "/>
<circle id="XMLID_177_" class="st4" cx="286.9" cy="218.7" r="4.3"/>
<line id="XMLID_186_" class="st6" x1="301.5" y1="167" x2="286.9" y2="218.7"/>
<line id="XMLID_187_" class="st7" x1="357.8" y1="155" x2="311.8" y2="156.7"/>
<line id="XMLID_188_" class="st7" x1="233.4" y1="214.5" x2="225.9" y2="200.2"/>
<line id="XMLID_189_" class="st6" x1="82.8" y1="216.7" x2="212.2" y2="192.9"/>
<line id="XMLID_190_" class="st6" x1="138" y1="283.1" x2="206.9" y2="358.6"/>
<line id="XMLID_191_" class="st7" x1="128.9" y1="279.5" x2="66.7" y2="302.6"/>
<line id="XMLID_192_" class="st6" x1="79.7" y1="226.6" x2="126.9" y2="269.4"/>
<polyline id="XMLID_194_" class="st6" points="65,319.8 126.9,385.4 204.9,370.4 "/>
<line id="XMLID_185_" class="st7" x1="329.4" y1="118.9" x2="354.3" y2="151.8"/>
<g id="XMLID_1_">
	<path id="XMLID_149_" class="st1" d="M295.3,240.3c-9.4,0-17.1,7.7-17.1,17.1c0,9.4,7.7,17.1,17.1,17.1c9.4,0,17.1-7.7,17.1-17.1
		C312.4,247.9,304.8,240.3,295.3,240.3z M307.3,266.7c0.1-0.3,0.1-0.6,0-0.9c-1.1-2.9-3-3.6-4.5-3.9c-1.3-0.2-2.8-0.7-3.4-1l-3,5
		l-0.4-1.9c0.5-0.3,0.9-0.9,0.9-1.5c0-0.1,0-0.1,0-0.2c-0.5,0.1-1.1,0.2-1.7,0.2c-0.6,0-1.2-0.1-1.7-0.2c0,0.1,0,0.1,0,0.2
		c0,0.6,0.4,1.2,0.9,1.5l-0.4,1.9l-3-5c-0.6,0.3-2.1,0.8-3.4,1c-1.5,0.3-3.4,1-4.5,3.9c0,0.1,0,0.2-0.1,0.2
		c-1.7-2.5-2.7-5.4-2.7-8.6c0-8.4,6.8-15.2,15.2-15.2s15.2,6.8,15.2,15.2C310.5,260.9,309.3,264.1,307.3,266.7z"/>
	<path id="XMLID_129_" class="st1" d="M301.7,251.9c0.5-4.7-2.5-7.1-4.3-7.7l0,0l0,0c-0.7-0.2-1.3-0.3-1.9-0.3c-0.1,0-0.3,0-0.4,0
		c-0.1,0-0.3,0-0.4,0c-0.6,0-1.2,0.1-1.9,0.3l0,0l0,0c-1.8,0.6-4.8,3-4.3,7.7c0,0,0,0,0,0c-0.5,0.7-0.4,1.6-0.2,2.3
		c0.3,1.3,0.8,1.9,1.3,2.3c0.2,0.6,0.5,1.6,1.2,2.5l0,0c0,0,0,0,0,0c0,0.1,0.1,0.1,0.1,0.2c0,0,0.5,0.6,1.3,1.2
		c0.4,0.3,0.8,0.5,1.2,0.7c0,0,0,0,0,0c0.2,0.1,0.3,0.1,0.5,0.2c0.2,0.1,0.5,0.1,0.7,0.1c0.1,0,0.2,0,0.3,0c0,0,0.1,0,0.1,0
		c0.1,0,0.1,0,0.2,0c1,0,2.1-0.4,3.1-1.1c0,0,1-0.9,1.5-1.5c0.6-0.9,1-1.8,1.1-2.4c0.5-0.3,1-1,1.3-2.3
		C302.2,253.6,302.3,252.6,301.7,251.9C301.7,251.9,301.7,251.9,301.7,251.9z M300.8,254c-0.4,1.6-1,1.7-1.1,1.7c0,0,0,0,0,0
		s-0.1,1.5-1.5,3.1c0,0,0,0,0,0c-1.1,1.1-2.2,1.6-3.2,1.6c-1.4-0.1-2.4-1-3-1.5c0,0,0,0,0,0c-1.4-1.6-1.5-3.1-1.5-3.1s0,0,0,0
		c-0.1,0-0.8-0.1-1.1-1.7c-0.3-1.2,0-1.4,0.2-1.4c0.1,0,0.2,0,0.2,0c0,0,0,0,0,0l0,0l0.5,1.6c0,0-0.3-4.4,2-4.7c0,0,2.5,2.6,5.6,3.1
		c0,0-0.7-1.2-1.2-2.3c0,0,1.8,2,3.4,2.3c0,0,0.2-0.3,0.5-0.8c0,0.3-0.1,0.5-0.1,0.8c0,0,0.1,0,0.2,0
		C300.8,252.6,301.1,252.8,300.8,254z"/>
</g>
</svg>
