<?xml version="1.0" encoding="utf-8"?>
<!-- Generator: Adobe Illustrator 19.0.0, SVG Export Plug-In . SVG Version: 6.00 Build 0)  -->
<svg version="1.1" id="Layer_1" xmlns="http://www.w3.org/2000/svg" xmlns:xlink="http://www.w3.org/1999/xlink" x="0px" y="0px"
	 width="470.1px" height="127.5px" viewBox="-404 297.5 470.1 127.5" style="enable-background:new -404 297.5 470.1 127.5;"
	 xml:space="preserve">
<style type="text/css">
	.st0{opacity:0.85;fill:#1491FB;enable-background:new    ;}
	.st1{fill:#81C784;}
	.st2{fill:#1491FB;}
	.st3{fill:#F21C1C;}
</style>
<path id="XMLID_45_" class="st0" d="M-21.4,386.4c-5-5.3-11.2-8.7-18.2-8.7c-15.8,0-28.9,18.2-28.9,38H-34
	C-32.7,404.1-28,394-21.4,386.4z"/>
<path id="XMLID_42_" class="st1" d="M-45,415.7c0-22.1,16.3-40.1,36.3-40.1s36.3,18,36.3,40.1H-45z"/>
<circle id="XMLID_3_" class="st2" cx="-225.4" cy="318.2" r="7.8"/>
<circle id="XMLID_9_" class="st2" cx="-202.3" cy="332.6" r="7.8"/>
<circle id="XMLID_13_" class="st2" cx="-174.3" cy="317.2" r="7.8"/>
<circle id="XMLID_14_" class="st2" cx="-146.3" cy="329.8" r="7.8"/>
<circle id="XMLID_15_" class="st2" cx="-118.3" cy="309.5" r="7.8"/>
<g id="XMLID_10_">
	<g id="XMLID_87_">
		<path id="XMLID_74_" class="st1" d="M-404,401.7h42.8v7.4h-5.6v5.6h-24.1v3.7h24.2v5.6h14.9v-5.6h24.2v-3.7h-24.3v-5.6h-5.6v-7.4
			h42.9v-22.3H-404V401.7z M-355.6,412.9v7.4h-7.4v-7.4H-355.6z M-400.2,383.1h81.9V398h-81.9V383.1z"/>
		<rect id="XMLID_37_" x="-396.5" y="388.7" class="st2" width="3.6" height="3.7"/>
		<rect id="XMLID_36_" x="-389" y="388.7" class="st2" width="3.6" height="3.7"/>
		<rect id="XMLID_35_" x="-381.5" y="388.7" class="st2" width="3.6" height="3.7"/>
		<rect id="XMLID_34_" x="-396.5" y="362.7" class="st2" width="3.6" height="3.7"/>
		<rect id="XMLID_33_" x="-389" y="362.7" class="st2" width="3.6" height="3.7"/>
		<rect id="XMLID_32_" x="-381.5" y="362.7" class="st2" width="3.6" height="3.7"/>
		<rect id="XMLID_31_" x="-396.5" y="336.6" class="st2" width="3.6" height="3.7"/>
		<rect id="XMLID_30_" x="-389" y="336.6" class="st2" width="3.6" height="3.7"/>
		<rect id="XMLID_29_" x="-381.5" y="336.6" class="st2" width="3.6" height="3.7"/>
		<path id="XMLID_48_" class="st1" d="M-317.4,308.7c-12.3,0-22.8,7.7-26.9,18.6H-404v22.3h60.4c0.6,1.3,1.3,2.5,2.1,3.7H-404v22.3
			h89.4v-9.4c14.6-1.4,26-13.7,26-28.7C-288.6,321.6-301.5,308.7-317.4,308.7z M-400.2,345.9V331h54.7c-0.5,2.1-0.8,4.3-0.8,6.5
			c0,2.9,0.4,5.7,1.2,8.4H-400.2L-400.2,345.9z M-318.4,372h-81.8v-14.9h61.6c5.1,5.5,12.2,9,20.2,9.3V372L-318.4,372z
			 M-317.4,362.7c-13.9,0-25.2-11.3-25.2-25.2c0-13.9,11.3-25.1,25.1-25.1c13.8,0,25.1,11.3,25.1,25.1S-303.6,362.7-317.4,362.7z"/>
		<g id="XMLID_5_">
			<polygon id="XMLID_6_" class="st0" points="-308.8,319.7 -340.4,333.1 -311.9,341.1 -331.6,356.9 -293.1,338.3 -324.7,331.5 			
				"/>
		</g>
	</g>
</g>
<path id="XMLID_11_" class="st1" d="M-125,313.5l-16.9,11c-1.2-1.2-2.9-1.9-4.8-1.9c-1.8,0-3.5,0.7-4.7,1.8l-16.1-6.2
	c-0.1-3.7-3.2-6.8-6.9-6.8c-3.8,0-6.9,3.1-6.9,6.9v0.1l-15.9,8.8c-1.3-1.3-3-2-4.9-2c-2.4,0-4.6,1.3-5.8,3.2l-10.4-6.5
	c0.6-1,1-2.3,1-3.6c0-3.8-3.1-6.9-6.9-6.9s-6.9,3.1-6.9,6.9s3.1,6.9,6.9,6.9c1.6,0,3.1-0.6,4.3-1.5l-0.2,0.3l11.2,7
	c-0.1,0.4-0.1,0.7-0.1,1.1c0,3.8,3.1,6.9,6.9,6.9s6.9-3.1,6.9-6.9c0-0.9-0.2-1.8-0.5-2.6l15-8.3c1.1,2.4,3.5,4,6.3,4
	c2.9,0,5.4-1.8,6.4-4.3l14.9,5.7c-0.4,0.8-0.6,1.8-0.6,2.8c0,3.8,3.1,6.9,6.9,6.9s6.9-3.1,6.9-6.9c0-1-0.2-1.9-0.6-2.7l17.2-11.2
	c1.2,0.9,2.6,1.4,4.2,1.4c3.8,0,6.9-3.1,6.9-6.9s-3.1-6.9-6.9-6.9s-6.9,3.1-6.9,6.9C-125.9,311.3-125.6,312.5-125,313.5z"/>
<g id="XMLID_16_">
	<path id="XMLID_20_" class="st1" d="M59.5,306.2H26c-2.8,0-5,2.2-5,5v67.2c0,2.8,2.2,5,5,5h33.5c2.8,0,5-2.2,5-5v-67.2
		C64.5,308.5,62.2,306.2,59.5,306.2z M38.2,309.3h9c0.4,0,0.8,0.3,0.8,0.8s-0.3,0.8-0.8,0.8h-9c-0.4,0-0.8-0.3-0.8-0.8
		S37.8,309.3,38.2,309.3z M45.7,381c0,0.6-0.4,1-1,1h-3.8c-0.6,0-1-0.4-1-1v-3.8c0-0.6,0.4-1,1-1h3.8c0.6,0,1,0.4,1,1V381z
		 M63.3,374.8H22.1V314h41.2V374.8z"/>
	
		<rect id="XMLID_18_" x="31.4" y="315.4" transform="matrix(0.7071 0.7071 -0.7071 0.7071 239.4744 72.3653)" class="st2" width="2" height="19.8"/>
	
		<rect id="XMLID_17_" x="37" y="312.5" transform="matrix(0.7071 0.7071 -0.7071 0.7071 244.9874 70.0259)" class="st2" width="2" height="36.5"/>
</g>
<circle id="XMLID_44_" class="st0" cx="-38.1" cy="353.1" r="15.3"/>
<circle id="XMLID_43_" class="st1" cx="-3.5" cy="350.4" r="19.3"/>
<g id="XMLID_1_">
	<g id="XMLID_7_">
		<g id="XMLID_19_">
			<path id="XMLID_211_" class="st3" d="M-185.1,371c-2.8,0.1-5.5-0.8-8.3-3l0,0C-190.8,370.1-188,371.2-185.1,371z"/>
			<path id="XMLID_212_" class="st3" d="M-184,370.9c-0.1,0-0.4,0-0.6,0.1C-184.5,370.9-184.3,370.9-184,370.9z"/>
		</g>
		<path id="XMLID_12_" class="st1" d="M-147,353.3c-0.1,0-0.1-0.1-0.3-0.1h-32.1l-14,14.7c2.6,2.2,5.4,3.2,8.3,3c0,0,0,0,0.1,0h0.1
			h0.1h0.1c0.1,0,0.4,0,0.6-0.1c6.7-1.1,12.1-8.5,13.3-10.2c0-0.1,0.1-0.1,0.1-0.3l0,0c0-0.1,0.1-0.1,0.1-0.1l0,0l0.1-0.3
			c0.6-0.6,1.4-0.7,2.1-0.1l19.3,16.4c0.4-1.4,0.8-2.9,1.2-4.4c1.2-5.5,1.4-10.5,1.2-14.2C-146.8,355.9-146.9,354.4-147,353.3z"/>
		<path id="XMLID_8_" class="st1" d="M-165.9,375.5c0.3,0,0.7,0.1,1,0.3l11.8,9.5c1.1-1.9,2.1-3.9,2.9-5.9c-0.1,0-0.3-0.1-0.4-0.3
			l-18.6-15.7c-2.2,3-7.6,9.2-14.6,10.3c-0.7,0.1-1.4,0.1-2.1,0.1c-3.4,0-6.7-1.4-10-4l0,0l-2.3-2.1l14-14.7h-18.2
			c-0.4,3.4-1,10.6,0.8,18.6c3.3,14.9,12.2,25.6,26.8,32.2c1.5-0.7,3-1.5,4.4-2.2l-9.6-8.7c-0.7-0.6-0.7-1.5-0.1-2.2
			c0.3-0.3,0.7-0.6,1.1-0.6s0.7,0.1,1.1,0.4l10,9.1c0.1,0.1,0.1,0.1,0.3,0.3c2.1-1.4,4.1-2.9,5.9-4.4l-11.3-9.8
			c-0.7-0.6-0.7-1.5-0.1-2.2c0.3-0.4,0.7-0.6,1.2-0.6c0.4,0,0.7,0.1,1,0.4l11.4,9.9c0,0,0.1,0,0.1,0.1c1.7-1.8,3.3-3.6,4.7-5.6
			c0,0-0.1,0-0.1-0.1l-12-9.6c-0.7-0.6-0.8-1.5-0.3-2.2C-166.8,375.7-166.3,375.5-165.9,375.5z"/>
	</g>
	<path id="XMLID_4_" class="st2" d="M-201.9,346h32.9v5.1h-32.9V346z"/>
	<path id="XMLID_2_" class="st1" d="M-167.1,346h20v5.1h-20V346z"/>
</g>
</svg>
