<?xml version="1.0" encoding="utf-8"?>
<!-- Generator: Adobe Illustrator 19.0.0, SVG Export Plug-In . SVG Version: 6.00 Build 0)  -->
<svg version="1.1" id="Layer_1" xmlns="http://www.w3.org/2000/svg" xmlns:xlink="http://www.w3.org/1999/xlink" x="0px" y="0px"
	 viewBox="56 -176 612 612" style="enable-background:new 56 -176 612 612;" xml:space="preserve">
<style type="text/css">
	.st0{fill:none;}
	.st1{fill:#81C784;}
	.st2{fill:#1491FB;}
	.st3{fill:#FFFFFF;}
</style>
<path class="st0" d="M615.3,69.1c0,0,0.4-3,0.7-4.5C615.8,66.1,615.6,67.6,615.3,69.1z M618.4,45.2c-0.1,1.1-0.2,2.1-0.3,3.2
	C618.1,47.6,618.3,46.3,618.4,45.2z M620,25.6c0-0.1,0-0.6,0.1-1.1c-0.1,1-0.1,2-0.2,2.9C619.9,26.8,620,26.2,620,25.6L620,25.6z
	 M618.8,40.3c0,0.5-0.1,0.9-0.1,1.4C618.8,41.4,618.8,40.9,618.8,40.3z M620.9,4.1V2.3v-2C621,1.6,621,2.9,620.9,4.1z M621.1-6.9
	L621.1-6.9z M620-41.2c0,0.5,0.1,1,0.1,1.5C620.1-40.1,620-40.7,620-41.2z M620.7,12.1L620.7,12.1z M621.1-9.7L621.1-9.7z
	 M619.5-47.9v0.6C619.6-47.6,619.5-47.8,619.5-47.9z M620.9,6.5L620.9,6.5z M621,0.4v2c0-0.7,0.1-3.2,0.1-3.8
	C621-0.8,621-0.2,621,0.4z"/>
<path class="st0" d="M620,25.6c0,0.6-0.1,1.2-0.1,1.8v0.2c-0.1,1-0.1,2-0.2,2.9C619.7,29.7,619.9,26.7,620,25.6z M620.5-32.1
	c0-0.8-0.2-4-0.3-4.9c0,0.8,0.1,1.7,0.1,2.5C620.4-33.6,620.5-32.8,620.5-32.1z M620.3-36.9v-0.6V-36.9z M405.3,373.1l-88-79.1
	c-3.3-2.9-4.9-7-4.7-11.1c-0.2,4.1,1.4,8.2,4.7,11.1L405.3,373.1z M611.2,92.6c-0.1,0.4-0.1,0.7-0.2,1
	C611,93.3,611.1,92.9,611.2,92.6z M380.5,227.9l103.6,89.8L380.5,227.9c-3.3-2.9-5-7-4.9-11C375.5,220.9,377.1,225,380.5,227.9z
	 M609.8,99.1c0.3-1.3,0.6-2.6,0.8-4C610.4,96.5,610.1,97.8,609.8,99.1c-1.3,5.8-2.6,11.6-4.1,17.3
	C607.2,110.7,608.5,104.9,609.8,99.1z M616,64.7c0.1-0.5,0.2-1.1,0.2-1.6C616.2,63.6,616.1,64.1,616,64.7z M119.2,99.2
	c-15.7-71.9-11.6-136.3-7.6-168.3h-1.1c-4,32-7.6,96.5,8.2,168.3c29.6,135.4,112.4,234.3,245.6,294.4c0,0,0.1,0,0.1,0.1h0.1
	C231.3,333.6,148.8,234.6,119.2,99.2L119.2,99.2z M615.3,69.5v-0.3V69.5z M620.2-37.6c0-0.7-0.1-1.5-0.1-2.2c0-0.5-0.1-1-0.1-1.5
	c-0.1-0.9-0.1-1.9-0.2-2.9C620-42,620.1-39.8,620.2-37.6L620.2-37.6z M621-1.4v-5.5C621.1-5.1,621.1-3.3,621-1.4z M620.3,19.7
	c0,0.6-0.1,1.2-0.1,1.7C620.3,20.9,620.3,20.3,620.3,19.7z M621,0.4L621,0.4z"/>
<path class="st0" d="M619.9,27.4c0-0.6,0.1-1.2,0.1-1.8C620,26.2,619.9,26.8,619.9,27.4z M619.6-47.3v-0.6v-0.5
	c0,0.6,0.1,1.2,0.1,1.8C619.6-46.9,619.6-47.1,619.6-47.3z M617.2-70.7c1.2,0.5,2.3,0.6,3.5,1.6c-1.2-1-2.4-1.2-3.5-1.7V-70.7
	L617.2-70.7z M619.5-48.9c0-0.2,0-0.4-0.1-0.6c0-0.3,0-0.6-0.1-0.9c-0.6-7.1-1.2-12.7-1.9-18.7c0.7,6,1.4,12.2,2,19.7
	C619.4-49.2,619.4-49.1,619.5-48.9z M621.1-7v-2.8V-7z M263.4,119.8c6.5,0,13-0.5,19.5-1.6c63.7-10.1,112.7-67,133.1-94.8
	l169.3,143.3c1,0.9,2.1,1.5,3.3,2c-1.2-0.5-2.3-1.2-3.3-2L416,23.5c-20.4,27.8-69.4,84.7-133.1,94.8
	C276.4,119.3,269.9,119.8,263.4,119.8c-31.6,0-62.3-12.4-91.2-37.1C201.1,107.4,231.8,119.8,263.4,119.8L263.4,119.8z M150.5,63.1
	L150.5,63.1L150.5,63.1z M319.7-69.1L193.5,63.6h0.2L320.2-69.1H319.7z M364.5,409.3l-5.7-13.1L364.5,409.3z"/>
<path class="st1" d="M193.6,63.7c24.2,19.6,49.3,28.9,74.8,27.6h0.7c0.3,0,0.7,0,1-0.1c0.3,0,0.6,0,1-0.1c0.6,0,1.2-0.1,1.8-0.2
	c1.8-0.2,3.7-0.4,5.5-0.7C340.7,80.3,389.3,12.8,400-3.2c0.4-0.8,0.9-1.6,1.5-2.3c0.4-0.7,0.7-1,0.7-1.1l0.1,0.1l1.9-2.1
	c0.3-0.3,0.6-0.7,0.9-1c2.2-2.1,5-3.3,7.9-3.5c3.3-0.3,6.7,0.7,9.4,3l176.7,149.5c1-3.3,2-6.5,3-9.9l2.1-7.5l1.5-5.7
	c1.5-5.7,2.8-11.5,4.1-17.3c0.5-2.2,0.9-4.4,1.4-6.5c0.1-0.4,0.2-0.9,0.3-1.3c0.1-0.3,0.1-0.5,0.2-0.8c0.3-1.5,0.6-3.1,0.9-4.6
	c0.1-0.7,0.3-1.4,0.4-2.2c0.3-1.8,0.7-3.7,1-5.5c0.1-0.3,0.1-0.6,0.2-1l0.6-3.9c0.1-0.8,0.3-1.5,0.4-2.3c0.1-0.6,0.2-1.1,0.3-1.7
	v-0.3c0.2-1.5,0.4-3,0.7-4.5c0.1-0.5,0.2-1.1,0.2-1.6c0-0.1,0-0.3,0.1-0.4c0.2-1.2,0.3-2.3,0.5-3.5c0.1-0.8,0.4-2.8,0.4-3.1
	c0.2-1.9,0.5-3.8,0.7-5.7c0.1-0.5,0.1-1,0.2-1.5c0-0.2,0-0.4,0.1-0.5c0.1-1.1,0.2-2.1,0.3-3.2c0.1-0.9,0.2-1.7,0.2-1.8
	c0-0.4,0.1-0.8,0.1-1.2v-0.5c0-0.5,0.1-0.9,0.1-1.4c0.2-2.3,0.5-6,0.6-6.9c0.1-1,0.2-1.9,0.2-2.9c0.1-1,0.1-2,0.2-2.9v-0.2
	c0.1-1,0.1-2,0.2-2.9c0-0.5,0.1-1.1,0.1-1.6s0.1-1,0.1-1.4c0.1-1,0.1-2,0.2-3c0-1,0.1-1.9,0.1-2.8c0-1.1,0.1-2.1,0.1-3.1V12
	c0-1,0.1-3.3,0.2-4.7V6.4V5V4c0-1.3,0-2.5,0.1-3.7v-1.8V-7v-0.1v-2.8c-0.1-8.8-0.5-22-0.5-22.2v-0.1c0-0.8-0.1-1.6-0.1-2.3
	c0-0.8-0.1-1.7-0.1-2.5v-0.2v-0.4v-0.1c-0.1-2.3-0.3-4.4-0.4-6.6c-0.1-0.9-0.1-1.8-0.2-2.5c0-0.6-0.1-1.2-0.1-1.8v-0.2V-49
	c0-0.2,0-0.4-0.1-0.6c-0.6-7.5-1.3-13.7-2-19.7H320.2L193.6,63.7L193.6,63.7z"/>
<path class="st2" d="M119.2,99.2c29.6,135.4,112.1,234.4,245.3,294.4c14.1-6.4,27.7-13.2,40.7-20.5l-88-79.1
	c-3.3-2.9-4.9-7.1-4.7-11.1c0.1-3.2,1.3-6.3,3.6-8.9c2.8-3.1,6.7-4.7,10.5-4.7c3.4,0,6.8,1.2,9.5,3.6l91.9,82.6
	c0.9,0.8,1.7,1.7,2.3,2.6c19.4-12.4,37.3-25.9,53.8-40.4l-103.6-89.8c-3.3-2.9-5-7-4.9-11c0.1-3.2,1.2-6.3,3.5-8.9
	c2.8-3.2,6.7-4.9,10.7-4.9c3.3,0,6.6,1.1,9.3,3.5l104.7,90.8l0.9,0.9c7.8-8,15.3-16.2,22.3-24.7c7.1-8.5,13.7-17.3,20-26.4l-1.2-0.9
	l-109.7-88.5c-6.1-4.9-7-13.8-2.1-19.9c0.3-0.4,0.7-0.8,1.1-1.2c0.6-0.6,1.2-1.1,1.9-1.5c0.4-0.3,0.9-0.6,1.3-0.8
	c2.1-1.1,4.4-1.7,6.7-1.7c3.1,0,6.3,1,8.9,3.1l108.3,87.3c10.1-17.2,18.9-35.3,26.4-54.3c-1.2-0.5-2.3-1.2-3.3-2L416,23.5
	c-20.4,27.8-69.4,84.7-133.1,94.8c-6.5,1-13,1.6-19.5,1.6c-31.6,0-62.3-12.4-91.2-37.1l0.2-0.2l-21.8-19.2v-0.1L276.3-69.1H111.6
	C107.6-37.1,103.5,27.3,119.2,99.2z"/>
<path class="st3" d="M620,25.3L620,25.3z M645.1-69.1h-27.6c0.7,6,1.4,11.6,1.9,18.7c0,0.3,0,0.6,0.1,0.9c0,0.2,0,0.4,0.1,0.6v1.5
	c0,0.3,0.1,0.7,0.1,1v0.5l0.3,4.5c0,0.6,0.1,1.1,0.1,1.5c0,0.7,0.1,1.5,0.1,2.2v0.7c0,0.8,0.2,4.1,0.3,4.9v1
	c0.3,6.7,0.5,13.8,0.5,21.3v8.4c0,0.6,0,3.1-0.1,3.8v5.1c0,0.8,0,1.6-0.1,2.4c0,0.8-0.1,1.5-0.1,2.3v0.3c0,1-0.1,2.1-0.1,3.1
	c0,0.9-0.1,1.9-0.1,2.8c0,1-0.1,2-0.2,3c0-0.6,0.1-1.2,0.1-1.7c0,0.6-0.1,1.2-0.1,1.7s-0.1,1-0.1,1.4c0,0.5-0.1,1-0.1,1.6
	c0,0.5-0.1,1-0.1,1.1v-0.2v0.3c-0.1,1.1-0.3,4.1-0.3,5c-0.1,1-0.2,1.9-0.2,2.9l-0.3,3.3c-0.1,1.2-0.2,2.3-0.3,3.5
	c0,0.6-0.1,1-0.1,1.4v0.5c0,0.4-0.1,0.8-0.1,1.2c0,0.3-0.1,0.6-0.1,0.8c0,0.3-0.1,0.6-0.1,1c-0.1,1.1-0.3,2.4-0.3,3.2
	c0,0.2,0,0.4-0.1,0.5c-0.1,0.5-0.1,1-0.2,1.5c-0.2,1.9-0.4,3.8-0.7,5.7c0,0.3-0.1,0.5-0.1,0.8c-0.1,0.8-0.2,1.5-0.3,2.3
	c-0.2,1.2-0.3,2.3-0.5,3.5c0,0.1,0,0.3-0.1,0.4c-0.1,0.5-0.2,1.1-0.2,1.6c-0.2,1.5-0.7,4.5-0.7,4.5v0.3c-0.1,0.6-0.2,1.1-0.3,1.7
	c-0.1,0.8-0.3,1.5-0.4,2.3l-0.6,3.9c-0.1,0.3-0.1,0.6-0.2,1c-0.3,1.8-0.6,3.6-1,5.5c-0.1,0.7-0.3,1.4-0.4,2.2
	c-0.3,1.5-0.6,3.1-0.9,4.6c0,0.3-0.1,0.5-0.2,0.8c-0.1,0.4-0.2,0.9-0.3,1.3c-0.1,0.3-0.1,0.7-0.2,1c0.1-0.3,0.1-0.7,0.2-1
	c-0.4,2.2-0.9,4.4-1.4,6.5c0.3-1.3,0.6-2.6,0.8-4c-0.3,1.3-0.6,2.6-0.8,4c-1.3,5.8-2.6,11.6-4.1,17.3l-1.5,5.7l-2.1,7.5l-3,9.9
	L422.6-9.9c-2.7-2.3-6.1-3.3-9.4-3c-2.9,0.2-5.7,1.4-7.9,3.5c-0.3,0.3-0.6,0.6-0.9,1l-1.9,2.1l-0.1-0.1c0,0-0.3,0.4-0.7,1.1
	c-0.6,0.7-1.1,1.5-1.5,2.3c-10.7,16-59.4,83.5-121.6,93.4c-1.8,0.3-3.7,0.5-5.5,0.7c-0.6,0.1-1.2,0.1-1.8,0.2c-0.3,0-0.7,0.1-1,0.1
	c-0.3,0-0.7,0-1,0.1h-0.7c-25.5,1.3-50.6-7.9-74.8-27.6h-0.1h-0.1l126.1-133h-43.4L150.5,63.2v0.1l21.8,19.2l-0.2,0.2
	c29,24.6,59.6,37.1,91.2,37.1c6.5,0,13-0.5,19.5-1.6c63.7-10.1,112.7-67,133.1-94.8l169.4,143.3c1,0.9,2.1,1.5,3.3,2
	c-7.5,19-16.4,37.1-26.4,54.3l-108.3-87.3c-2.6-2.1-5.8-3.1-8.9-3.1c-2.3,0-4.6,0.6-6.7,1.7c-0.5,0.2-0.9,0.5-1.3,0.8
	c-0.7,0.5-1.3,1-1.9,1.5c-0.4,0.4-0.8,0.8-1.1,1.2c-4.9,6.1-3.9,15,2.1,19.9L545.7,246l1.2,0.9c-6.3,9.1-12.9,17.9-20,26.4
	s-14.5,16.8-22.3,24.7l-0.9-0.9L399,206.3c-2.7-2.3-6-3.5-9.3-3.5c-4,0-7.9,1.7-10.7,4.9c-2.2,2.6-3.4,5.7-3.5,8.9
	c-0.1,4.1,1.6,8.2,4.9,11l103.7,90.1c-16.5,14.6-34.4,28-53.8,40.4c-0.6-0.9-1.4-1.8-2.3-2.6l-91.9-82.6c-2.7-2.4-6.1-3.6-9.5-3.6
	c-3.9,0-7.7,1.6-10.5,4.7c-2.3,2.5-3.5,5.7-3.6,8.9c-0.2,4.1,1.4,8.2,4.7,11.1l88,79.1c-13,7.3-26.6,14.1-40.7,20.5h-0.1
	c0,0-0.1,0-0.1-0.1c-133.2-60.1-216-159-245.6-294.4C103,27.2,106.6-37.2,110.5-69.2H83.1c-4.2,35-7.7,99.4,8.3,173.3
	c13.9,64.4,39.8,122.1,77,171.8c46.4,62,110.5,111.1,190.5,146.2l5.6,2.6l5.6-2.6c80-35,144.1-84.2,190.6-146.2
	c37.2-49.7,63.4-107.5,77.3-171.8C655.7,22,645.1-69.1,645.1-69.1z M364.5,409.3l-5.7-13.1L364.5,409.3z M620,25.6v-0.3V25.6z"/>
<path class="st3" d="M620-41.2l-0.3-4.5c0,0.5,0.1,1.1,0.1,1.6C619.9-43.1,619.9-42.1,620-41.2z M620,25.3L620,25.3z M618.5,44.2
	c0-0.3,0.1-0.6,0.1-0.8C618.5,43.6,618.5,43.9,618.5,44.2z M619.7-46.2c0-0.3-0.1-0.7-0.1-1v0.6C619.6-46.5,619.7-46.4,619.7-46.2z
	 M621.1-9.8C621.1-9.7,621.1-9.7,621.1-9.8c0-7.5-0.2-14.6-0.5-21.3V-32v1C620.9-24.4,621-17.2,621.1-9.8z M617.1,56.8
	c0-0.3,0.1-0.5,0.1-0.8c0,0.3-0.3,2.3-0.4,3.1C616.8,58.4,617,57.6,617.1,56.8z"/>
<path class="st3" d="M618.5,44.2c0-0.3,0.1-0.6,0.1-0.8c0,0.1-0.1,0.9-0.2,1.8C618.4,44.8,618.4,44.5,618.5,44.2z M619.2,36.8
	l0.3-3.3c-0.1,0.9-0.4,4.6-0.6,6.9L619.2,36.8L619.2,36.8z M620.9,4.1L620.9,4.1z M619.8-44.1c0-0.5-0.1-1.1-0.1-1.6v-0.5v-0.4
	C619.7-45.9,619.7-45,619.8-44.1z M620.6-31v-1c0,0.3,0.5,13.4,0.5,22.2C621-17.2,620.9-24.4,620.6-31z M620.8,9.8
	c0-0.8,0-1.6,0.1-2.4c0,1.4-0.1,3.7-0.2,4.7C620.7,11.3,620.7,10.6,620.8,9.8z"/>
<path id="XMLID_2_" class="st3" d="M80.9-69.1h567.4V-161H79.5v91.9h0.2H80.9z"/>
<path id="XMLID_4_" class="st2" d="M108-140.1h309.1v48H108V-140.1z"/>
<path id="XMLID_7_" class="st1" d="M456.2-140.1h164.9v48H456.2V-140.1z"/>
</svg>
